<?xml version="1.0" standalone="no"?>
<!DOCTYPE svg PUBLIC "-//W3C//DTD SVG 20010904//EN"
 "http://www.w3.org/TR/2001/REC-SVG-20010904/DTD/svg10.dtd">
<svg version="1.0" xmlns="http://www.w3.org/2000/svg"
 width="1024.000000pt" height="1024.000000pt" viewBox="0 0 1024.000000 1024.000000"
 preserveAspectRatio="xMidYMid meet">

<g transform="translate(0.000000,1024.000000) scale(0.100000,-0.100000)"
fill="#000000" stroke="none">
<path d="M0 5120 l0 -5120 5120 0 5120 0 0 5120 0 5120 -5120 0 -5120 0 0
-5120z m5282 4158 l27 -33 1 33 c0 37 29 47 31 10 2 -44 -3 -113 -8 -118 -3
-3 -18 11 -34 30 l-29 34 0 -32 c0 -21 -5 -32 -14 -32 -17 0 -26 31 -26 93 0
57 14 61 52 15z m-274 6 c30 -21 32 -98 3 -114 -51 -27 -71 -6 -71 77 0 40 3
44 40 52 3 0 16 -6 28 -15z m132 -50 c0 -48 -3 -65 -12 -62 -8 3 -14 28 -16
66 -2 51 0 62 13 62 12 0 15 -13 15 -66z m680 16 c9 -21 19 -30 36 -30 34 0
39 -18 14 -45 -17 -19 -21 -31 -17 -55 8 -35 8 -35 -37 -13 -33 15 -37 15 -54
0 -28 -25 -35 -21 -29 17 4 27 1 38 -19 57 -30 28 -30 39 -1 39 27 0 38 8 60
43 21 32 29 29 47 -13z m-1036 -17 c10 -62 7 -93 -8 -93 -13 0 -26 48 -26 103
0 42 26 34 34 -10z m626 12 c0 -8 -4 -15 -10 -15 -5 0 -10 7 -10 15 0 8 5 15
10 15 6 0 10 -7 10 -15z m-756 -43 c7 -35 13 -42 32 -42 13 0 24 -4 24 -10 0
-13 -34 -30 -59 -30 -22 0 -25 8 -36 88 -5 38 -3 43 12 40 12 -2 21 -18 27
-46z m-130 6 c21 -34 41 -97 33 -104 -4 -4 -15 0 -25 9 -24 22 -29 21 -35 -3
-10 -39 -27 -20 -27 31 0 80 25 112 54 67z m1546 -78 c0 -5 -4 -10 -10 -10 -5
0 -10 5 -10 10 0 6 5 10 10 10 6 0 10 -4 10 -10z m155 -36 c0 -10 -8 -20 -17
-22 -18 -3 -26 27 -11 42 12 11 28 0 28 -20z m-1965 -5 c0 -5 -4 -9 -10 -9 -5
0 -10 7 -10 16 0 8 5 12 10 9 6 -3 10 -10 10 -16z m-130 -33 c0 -31 -12 -39
-35 -22 -23 16 -13 46 15 46 15 0 20 -7 20 -24z m2243 -13 c-7 -17 -19 -17
-26 1 -7 18 14 40 24 24 4 -6 5 -17 2 -25z m171 -9 c18 -7 22 -60 6 -84 -14
-22 -31 29 -18 53 5 10 7 21 5 24 -3 2 -8 -4 -11 -15 -7 -20 -34 -37 -44 -27
-3 3 5 16 18 30 27 28 23 27 44 19z m-2544 -19 c0 -21 -30 -31 -40 -14 -11 17
-3 29 21 29 10 0 19 -7 19 -15z m1443 -5 c374 -27 801 -131 1104 -267 l41 -19
-54 -45 c-114 -92 -196 -220 -224 -350 -17 -77 -8 -227 19 -311 30 -94 109
-208 187 -270 35 -29 64 -54 64 -58 0 -3 -233 -64 -517 -136 l-518 -129 -58
-100 c-31 -55 -98 -176 -148 -270 -50 -93 -132 -245 -181 -338 -66 -123 -96
-168 -112 -172 -11 -2 -95 -22 -186 -44 -144 -35 -865 -199 -975 -222 -22 -4
-98 -22 -170 -39 -71 -16 -211 -49 -310 -71 -99 -23 -236 -54 -305 -70 -155
-36 -231 -51 -235 -47 -3 3 53 93 87 141 14 18 194 82 788 276 419 137 412
134 408 169 -3 24 -7 27 -38 25 -55 -3 -999 -307 -1084 -349 -37 -19 -47 -21
-42 -9 3 9 13 40 21 69 18 63 25 69 128 125 70 38 80 41 91 26 10 -14 18 -13
81 16 91 41 405 166 439 175 20 5 30 18 47 65 12 32 24 59 28 59 36 1 248 37
368 62 84 17 154 29 156 27 2 -2 0 -58 -4 -124 -4 -66 -8 -179 -8 -251 l-1
-130 247 125 c230 118 248 129 267 166 12 22 44 83 72 135 28 52 90 168 138
257 l87 162 92 52 c261 147 447 306 604 519 110 148 189 302 207 400 10 58
-26 117 -98 156 -144 79 -306 108 -556 101 -269 -8 -471 -62 -757 -202 l-152
-75 -243 61 c-134 33 -265 63 -293 66 -57 5 -176 -27 -359 -96 -60 -22 -115
-41 -122 -41 -8 0 -14 -4 -14 -9 0 -12 87 -90 235 -213 150 -123 184 -156 169
-166 -40 -27 -257 -209 -294 -246 -24 -25 -47 -46 -51 -46 -4 0 -17 16 -29 35
l-21 34 -47 -18 c-26 -11 -105 -47 -177 -81 -71 -35 -159 -74 -194 -89 -53
-21 -66 -32 -74 -56 -18 -57 -23 -58 -103 -14 -76 42 -82 43 -63 7 17 -32 3
-32 -48 -2 -133 78 -237 106 -398 106 -157 0 -313 -47 -474 -141 -104 -62
-306 -149 -318 -137 -12 12 449 254 545 286 35 11 101 26 147 33 l85 12 68 95
c80 111 91 118 367 226 94 37 185 73 203 80 24 10 32 19 32 39 0 14 -7 28 -15
31 -17 7 -152 -36 -245 -78 -36 -17 -93 -41 -128 -54 l-64 -24 47 52 c100 112
341 323 505 445 401 296 927 527 1440 632 312 64 591 83 893 61z m-1573 -46
c0 -8 -9 -14 -20 -14 -22 0 -28 26 -7 33 16 6 27 -1 27 -19z m-115 -21 c14
-65 14 -63 -10 -57 -12 3 -26 1 -29 -5 -10 -16 -23 -13 -29 7 -2 9 -8 25 -12
35 -6 13 1 20 26 32 46 19 48 19 54 -12z m2999 -5 c13 -22 -14 -54 -38 -45
-16 6 -22 48 -9 61 11 11 35 3 47 -16z m192 -63 c12 -11 12 -19 4 -35 -13 -24
-23 -25 -44 -4 -21 20 -20 31 2 43 22 13 21 13 38 -4z m-3601 -65 c3 -11 13
-20 21 -20 16 0 19 -16 4 -25 -5 -3 -10 -14 -10 -24 0 -13 -8 -18 -30 -18 -22
0 -30 5 -30 18 0 10 -4 21 -10 24 -16 10 -12 23 10 30 11 3 20 13 20 21 0 21
18 17 25 -6z m3805 -85 c105 -53 218 -171 278 -291 13 -25 45 -59 89 -91 66
-49 147 -134 267 -276 32 -38 56 -70 54 -72 -5 -5 -489 -125 -504 -125 -7 0 3
28 22 63 89 164 92 337 11 506 -38 79 -150 200 -231 251 -91 57 -81 83 14 35z
m586 -119 c8 -32 -11 -65 -44 -77 -21 -8 -31 -6 -51 9 -68 50 -13 143 61 105
15 -7 30 -24 34 -37z m-5004 15 c19 -16 23 -26 20 -55 -3 -28 -11 -38 -38 -51
-38 -18 -66 -10 -84 25 -15 28 -12 44 11 74 24 31 57 33 91 7z m346 -36 c-15
-17 -24 -21 -29 -13 -4 6 2 19 14 29 31 24 41 13 15 -16z m3914 -2 c99 -35
187 -124 229 -230 31 -80 31 -204 0 -285 -60 -157 -255 -268 -419 -240 -213
36 -351 226 -321 442 35 245 280 396 511 313z m-1478 -185 c11 -55 13 -108 4
-108 -5 0 -6 5 -3 10 3 6 2 10 -3 10 -5 0 -12 9 -15 20 -4 16 -13 20 -44 19
-68 -2 -98 -13 -99 -34 -2 -40 -4 -46 -14 -40 -5 3 -10 19 -10 36 0 37 -17 38
-151 4 -215 -55 -478 -173 -704 -316 -72 -46 -64 -51 13 -8 30 17 56 28 59 25
3 -2 -32 -24 -78 -47 -48 -24 -78 -34 -69 -24 10 12 5 11 -23 -5 -41 -24 -50
-37 -14 -20 21 11 21 11 2 -5 -11 -8 -25 -13 -31 -11 -7 3 -20 -2 -31 -10 -10
-9 -12 -13 -3 -9 8 4 6 -1 -4 -9 -11 -9 -25 -16 -31 -16 -7 0 -37 -18 -69 -40
-63 -44 -71 -47 -62 -25 7 20 -14 19 -43 -1 -18 -13 -22 -23 -17 -45 5 -26 1
-32 -37 -56 -131 -86 -348 -249 -425 -321 -18 -17 -34 -27 -35 -24 -2 4 -10
29 -17 56 l-13 48 64 59 c168 154 498 395 729 533 437 260 753 372 1062 375
104 1 108 0 112 -21z m193 -8 c73 -21 163 -57 163 -66 0 -2 -11 -2 -25 2 -16
4 -37 -1 -60 -15 -44 -26 -55 -26 -55 -2 0 10 -7 25 -17 32 -15 13 -16 10 -11
-26 3 -22 2 -49 -3 -60 -6 -17 -8 -15 -8 10 -1 34 -16 63 -27 52 -14 -13 30
-142 88 -260 32 -65 58 -120 58 -123 0 -32 -93 83 -137 169 -29 57 -78 205
-88 265 -7 41 -6 42 21 42 15 0 61 -9 101 -20z m-2841 -46 c-6 -13 -17 -19
-27 -17 -25 7 -32 33 -13 54 15 16 17 16 33 1 12 -13 14 -22 7 -38z m5097 -34
c6 -14 13 -28 14 -32 2 -4 -12 -1 -31 7 -20 9 -54 13 -79 11 -24 -3 -50 0 -58
5 -9 6 1 9 34 9 44 0 49 3 69 37 22 36 22 36 31 12 5 -13 14 -35 20 -49z
m-5451 -2 c18 -32 33 -45 66 -56 23 -7 42 -17 42 -22 0 -5 -14 -19 -31 -31
-29 -20 -31 -25 -27 -70 3 -27 3 -51 0 -53 -2 -3 -22 4 -43 15 -39 19 -39 19
-79 -1 -21 -11 -41 -20 -42 -20 -2 0 -1 24 0 54 4 51 2 56 -27 77 -17 12 -31
26 -31 31 0 4 21 13 46 19 40 10 48 17 67 55 11 24 24 44 28 44 4 0 18 -19 31
-42z m2968 -8 c-8 -5 -19 -10 -25 -10 -5 0 -3 5 5 10 8 5 20 10 25 10 6 0 3
-5 -5 -10z m-1295 -65 c115 -31 211 -58 213 -60 3 -2 -7 -9 -20 -16 -20 -9
-42 -7 -109 11 -46 12 -148 37 -227 55 l-143 34 -146 -50 c-124 -42 -148 -48
-160 -36 -12 11 -3 18 59 42 153 60 242 85 283 81 22 -3 134 -30 250 -61z
m1215 41 c0 -2 -7 -7 -16 -10 -8 -3 -12 -2 -9 4 6 10 25 14 25 6z m421 -36
c12 0 31 7 41 17 10 9 18 11 18 6 0 -6 -16 -18 -36 -28 -39 -18 -55 -12 -75
29 -9 19 -9 19 10 -1 10 -13 29 -23 42 -23z m2144 4 c0 -6 -17 -25 -37 -43
-33 -29 -38 -31 -38 -13 0 20 21 44 36 41 20 -3 34 2 34 12 0 6 -7 8 -16 5 -9
-3 -12 -2 -9 5 8 12 30 7 30 -7z m45 0 c0 -2 -7 -4 -15 -4 -8 0 -15 4 -15 10
0 5 7 7 15 4 8 -4 15 -8 15 -10z m-3256 -208 c-16 -14 -32 -26 -37 -26 -4 0 7
13 25 29 18 16 35 28 37 26 2 -2 -10 -15 -25 -29z m297 -23 c86 -44 139 -149
119 -238 -29 -128 -183 -202 -306 -146 -123 56 -162 209 -82 324 11 15 43 41
71 57 68 39 124 40 198 3z m295 0 c-10 -10 -19 5 -10 18 6 11 8 11 12 0 2 -7
1 -15 -2 -18z m-23 -20 c5 -26 4 -26 -9 -8 -16 22 -18 35 -5 35 5 0 11 -12 14
-27z m-723 -23 c-25 -16 -61 -35 -80 -41 -19 -7 -46 -20 -60 -29 -38 -26 -111
-62 -117 -57 -5 6 267 154 287 156 8 0 -5 -13 -30 -29z m-2390 -56 c0 -24 31
-44 68 -44 l36 0 -33 -34 c-31 -32 -33 -38 -28 -80 4 -26 4 -46 1 -46 -4 0
-23 9 -44 21 l-37 21 -41 -21 c-47 -24 -47 -24 -30 31 11 36 10 40 -15 66 -35
36 -34 42 7 42 39 0 57 14 76 60 13 30 14 31 27 14 7 -10 13 -23 13 -30z
m5945 -276 c-85 -172 -163 -320 -175 -330 -11 -9 -39 -19 -63 -23 -23 -4 -166
-38 -317 -75 -244 -60 -453 -111 -935 -225 -519 -124 -904 -210 -1068 -240
-221 -40 -209 -39 -157 -17 25 10 89 31 143 47 53 15 95 30 93 32 -2 2 -47 -3
-100 -12 -120 -21 -154 -15 -61 10 119 31 102 47 -29 25 -33 -5 -62 -8 -64 -5
-2 2 28 13 67 25 39 12 71 24 71 27 0 7 -111 -3 -132 -12 -23 -9 -23 6 0 31
10 11 19 26 19 34 0 8 25 60 55 115 30 55 74 135 97 178 24 42 50 81 59 86 16
9 142 40 772 190 162 39 428 102 590 141 162 39 364 87 448 106 84 19 302 73
485 119 183 46 337 84 344 84 6 1 -58 -140 -142 -311z m-3845 187 c0 -3 -24
-18 -52 -35 -99 -57 -95 -48 -68 -137 33 -108 49 -145 59 -138 5 3 7 -3 4 -13
-2 -10 5 -42 16 -72 36 -94 15 -64 -29 42 -60 144 -90 250 -77 266 8 10 134
90 145 92 1 0 2 -2 2 -5z m4150 -50 c0 -7 8 -16 17 -19 12 -5 14 -9 5 -18 -7
-7 -12 -19 -12 -28 0 -11 -9 -16 -32 -16 -30 0 -33 3 -33 31 0 16 9 40 20 51
21 22 35 22 35 -1z m-3790 -112 c0 -26 0 -26 -19 -7 -18 19 -15 25 17 33 1 1
2 -11 2 -26z m-2794 -53 c11 0 13 -9 8 -42 -8 -53 -8 -52 -34 -38 -16 9 -25 9
-36 -1 -12 -9 -14 -6 -14 19 0 17 -3 37 -6 46 -4 11 0 16 14 16 11 0 23 8 27
18 6 16 7 16 16 0 6 -10 17 -18 25 -18z m2134 16 c0 -2 -12 -11 -27 -20 l-28
-17 24 20 c23 21 31 25 31 17z m499 -38 l11 -31 -23 24 c-18 19 -19 37 0 39 0
0 6 -14 12 -32z m4130 -148 c19 -41 40 -80 48 -87 8 -6 40 -14 72 -18 31 -4
63 -10 70 -14 14 -9 16 -5 -57 -82 l-43 -45 15 -85 c8 -46 13 -85 12 -87 -2
-1 -38 17 -81 41 l-78 43 -76 -43 c-42 -24 -78 -43 -82 -43 -6 0 19 161 27
169 2 3 -21 31 -53 63 -31 31 -54 60 -51 63 3 3 36 11 74 18 l69 12 44 93 c25
50 48 89 51 85 4 -5 21 -42 39 -83z m-5179 -100 c26 -126 82 -273 149 -392 27
-49 47 -88 44 -88 -4 0 -25 11 -49 25 -65 38 -169 158 -200 232 -15 35 -29 61
-31 59 -8 -8 31 -144 58 -197 29 -60 29 -70 0 -62 -45 12 -139 151 -142 211 0
11 -2 12 -6 4 -8 -21 27 -163 53 -212 21 -39 22 -46 9 -59 -23 -23 -63 -3
-100 51 -42 61 -76 187 -82 309 l-6 96 94 51 c52 28 112 62 134 76 28 17 42
21 46 13 4 -7 16 -59 29 -117z m690 115 c20 -24 6 -28 -15 -5 -10 11 -13 20
-8 20 6 0 16 -7 23 -15z m4178 -4 c23 -20 29 -41 12 -41 -5 0 -9 -3 -9 -7 5
-30 -3 -40 -31 -40 -22 0 -27 3 -20 12 7 9 6 16 -5 25 -19 16 -19 40 0 40 8 0
15 7 15 15 0 20 10 18 38 -4z m-4598 -20 c0 -5 -7 -12 -16 -15 -14 -5 -15 -4
-4 9 14 17 20 19 20 6z m277 -71 c15 -39 10 -38 -15 4 -12 20 -15 33 -8 30 6
-2 17 -18 23 -34z m-137 -14 c0 -2 -7 -7 -16 -10 -8 -3 -12 -2 -9 4 6 10 25
14 25 6z m-45 -26 c3 -6 -1 -7 -9 -4 -18 7 -21 14 -7 14 6 0 13 -4 16 -10z
m-45 -10 c0 -5 -5 -10 -11 -10 -5 0 -7 5 -4 10 3 6 8 10 11 10 2 0 4 -4 4 -10z
m-668 -146 c3 -65 11 -134 17 -153 6 -19 8 -38 5 -42 -3 -5 -1 -9 4 -9 10 0
42 -64 42 -84 0 -17 85 -144 111 -167 10 -9 19 -20 19 -25 0 -17 -65 55 -106
118 -97 151 -170 401 -135 467 25 45 36 17 43 -105z m528 74 c0 -17 -10 -6
-25 25 l-16 32 20 -25 c11 -14 21 -28 21 -32z m-1200 31 c63 -14 180 -69 180
-85 0 -26 -33 -33 -70 -14 -106 54 -274 67 -393 30 -182 -56 -327 -227 -361
-424 -14 -80 -26 -103 -45 -92 -18 11 -13 104 10 189 50 183 211 340 402 392
61 16 213 19 277 4z m1260 -9 c-8 -5 -19 -10 -25 -10 -5 0 -3 5 5 10 8 5 20
10 25 10 6 0 3 -5 -5 -10z m-1780 -26 c0 -4 -37 -46 -83 -93 -86 -90 -132
-164 -172 -279 -19 -55 -24 -62 -25 -37 -1 27 -2 28 -11 10 -7 -16 -8 -13 -4
13 7 47 47 142 86 208 42 69 159 184 188 184 12 0 21 -3 21 -6z m1074 -96 c4
-35 9 -77 12 -94 6 -30 5 -31 -70 -60 -42 -16 -76 -32 -76 -37 0 -5 8 -6 18
-3 50 15 70 17 76 7 5 -8 18 -6 42 4 34 14 35 14 45 -13 27 -68 59 -153 59
-156 0 -2 -10 -6 -22 -9 -12 -4 -19 -10 -15 -14 4 -4 -9 -17 -30 -30 -29 -17
-33 -23 -18 -23 18 -1 19 -1 2 -11 -9 -5 -22 -7 -27 -4 -11 7 -70 -16 -70 -26
0 -4 -11 -10 -25 -13 -14 -4 -23 -11 -20 -16 4 -6 -1 -7 -11 -3 -10 4 -15 2
-11 -3 3 -5 -7 -17 -23 -26 -26 -15 -28 -15 -23 -1 4 11 2 14 -5 9 -7 -4 -12
-13 -12 -20 0 -6 -51 -38 -112 -71 -62 -32 -173 -91 -247 -131 -122 -66 -130
-72 -90 -68 24 3 82 17 129 31 95 28 169 61 579 254 137 65 131 63 131 50 0
-6 -30 -24 -67 -42 -38 -17 -189 -91 -338 -164 -283 -139 -376 -175 -454 -175
-52 0 -132 19 -175 42 l-29 15 69 38 c80 44 79 44 73 50 -3 2 -29 -2 -59 -10
-52 -13 -144 -25 -345 -45 -93 -10 -255 -3 -255 10 0 11 117 119 186 172 97
74 221 151 352 218 67 34 121 64 119 66 -10 10 -234 -59 -264 -82 l-33 -25 0
34 c0 49 52 146 108 201 72 72 156 109 256 114 59 3 100 -1 141 -13 l59 -17
-30 -17 c-16 -10 -78 -46 -139 -80 -60 -33 -107 -61 -102 -61 12 0 490 206
657 283 30 14 60 26 66 26 7 1 14 -25 18 -61z m5194 32 c76 -44 104 -93 113
-200 8 -97 13 -112 46 -158 51 -69 107 -76 266 -36 90 22 107 30 141 65 44 45
88 52 126 19 27 -24 23 -24 84 -5 75 23 86 21 86 -18 l0 -34 -97 -23 c-54 -12
-170 -40 -257 -62 -219 -54 -268 -58 -339 -25 -83 38 -106 80 -119 216 -11
126 -21 154 -62 186 -54 41 -113 50 -218 32 -138 -24 -189 -42 -272 -98 -42
-28 -102 -59 -134 -70 l-59 -20 -6 -64 c-4 -36 -3 -132 0 -214 7 -161 2 -181
-42 -181 -22 0 -22 3 -28 182 -9 234 -9 300 1 316 5 7 40 21 80 32 45 12 100
39 148 70 105 68 273 117 414 119 66 1 81 -3 128 -29z m865 5 c18 -16 25 -30
20 -38 -4 -6 -8 -21 -8 -31 0 -16 -7 -20 -41 -21 -38 -1 -41 1 -41 24 0 15 -3
34 -7 44 -6 12 -4 17 8 17 9 0 19 7 22 15 8 20 14 19 47 -10z m-4733 -145 c-8
-5 -26 -9 -40 -9 -23 1 -23 2 5 9 43 11 52 11 35 0z m3735 -30 c26 -25 27 -42
0 -20 -10 9 -42 11 -107 8 -73 -3 -105 -10 -150 -30 l-58 -27 0 -156 c0 -94 4
-164 11 -177 10 -19 17 -20 112 -14 l102 5 -60 -14 c-91 -22 -129 -19 -164 11
l-31 26 0 167 c0 187 -1 185 74 216 58 25 114 34 183 31 50 -1 67 -7 88 -26z
m-6511 -77 c-4 -16 -12 -34 -18 -41 -13 -14 -322 -122 -346 -121 -11 0 355
189 368 189 1 0 -1 -12 -4 -27z m6484 10 c2 -7 -5 -13 -15 -13 -16 -1 -16 -2
-2 -10 17 -10 15 -60 -2 -60 -5 0 -9 -7 -9 -15 0 -8 7 -15 15 -15 26 0 28 -28
6 -65 -26 -44 -26 -55 -3 -48 16 4 18 0 14 -27 -6 -39 -28 -49 -132 -56 -43
-3 -86 -7 -96 -7 -16 -2 -20 8 -25 63 -13 125 -10 227 5 240 34 27 235 38 244
13z m-818 -54 c23 -13 16 -14 -80 -20 -111 -6 -202 -35 -219 -68 -6 -12 -7
-204 -2 -308 1 -7 9 -21 19 -31 16 -16 28 -17 93 -11 122 13 151 8 49 -8 -111
-17 -152 -12 -180 24 -18 23 -20 40 -20 188 l0 163 35 31 c20 17 39 31 43 31
4 1 30 7 57 15 59 17 170 14 205 -6z m-3535 -58 c-13 -11 -267 -103 -272 -98
-2 2 45 23 104 46 60 23 117 46 128 51 26 11 52 13 40 1z m3512 -12 c21 -8 24
-13 13 -18 -16 -6 -20 -24 -7 -37 12 -12 8 -36 -9 -55 -18 -20 -11 -41 11 -32
26 9 17 -32 -15 -72 -16 -21 -30 -39 -30 -41 0 -2 14 -1 30 3 27 5 30 3 30
-18 0 -43 -12 -48 -130 -57 -99 -8 -117 -7 -127 6 -9 11 -13 57 -13 149 0 127
1 133 23 148 43 28 177 42 224 24z m-537 -148 c0 -81 -3 -177 -7 -212 -6 -58
-7 -61 -15 -34 -11 36 -23 357 -15 379 4 9 13 16 22 16 13 0 15 -22 15 -149z
m-282 -28 c-3 -137 -3 -137 -28 -143 -23 -5 -25 -11 -28 -65 -2 -33 -7 -64
-13 -69 -5 -6 -9 41 -9 127 0 75 -3 137 -7 137 -5 0 -18 -3 -30 -6 -21 -6 -23
-12 -23 -75 l0 -68 -35 -7 -35 -6 0 -59 c0 -57 -12 -84 -24 -53 -3 9 -6 38 -6
66 0 49 0 50 -27 44 -16 -4 -188 -33 -383 -66 -875 -146 -1027 -174 -1385
-255 -209 -47 -560 -125 -780 -175 -220 -49 -470 -106 -555 -125 -85 -20 -184
-42 -220 -50 -36 -8 -103 -24 -150 -35 -47 -11 -143 -33 -215 -50 -198 -45
-774 -182 -1094 -260 -194 -47 -215 -49 -237 -15 -19 29 -12 58 19 77 43 28
246 78 1047 258 102 23 253 57 335 76 83 19 197 46 255 59 160 37 487 112 660
151 85 19 331 75 545 124 878 200 833 191 1040 210 127 12 366 48 860 129 219
36 302 46 307 37 4 -6 8 6 8 27 l0 38 -57 -6 c-32 -4 -139 -18 -238 -31 -245
-34 -389 -52 -460 -58 l-60 -5 75 19 c41 11 93 19 115 20 26 0 35 3 27 9 -17
10 27 23 61 18 12 -2 15 -2 8 1 -21 6 31 23 258 81 348 90 425 109 454 110
l28 1 -3 -137z m-3261 111 c-3 -3 -12 -4 -19 -1 -8 3 -5 6 6 6 11 1 17 -2 13
-5z m6143 -38 c0 -7 -3 -34 -6 -60 -6 -43 -9 -47 -43 -55 -53 -13 -284 -68
-746 -176 -225 -52 -437 -102 -470 -110 -33 -8 -103 -24 -155 -34 -52 -11
-194 -43 -315 -71 -121 -27 -272 -62 -335 -76 -330 -73 -485 -108 -575 -130
-55 -13 -106 -24 -112 -24 -9 0 -13 17 -13 50 0 60 -3 59 160 94 302 66 1017
231 1495 346 182 43 411 97 510 121 99 23 268 63 375 89 219 54 230 56 230 36z
m-7764 -38 c-3 -13 -6 -30 -6 -39 0 -10 -16 -23 -40 -33 -116 -46 -513 -186
-517 -182 -6 6 141 80 347 175 85 39 166 78 180 86 35 20 43 19 36 -7z m624
-292 c0 -2 -9 -6 -20 -9 -11 -3 -18 -1 -14 4 5 9 34 13 34 5z m680 -30 c0 -27
-84 -138 -133 -178 -105 -83 -209 -118 -347 -118 -97 0 -176 18 -257 57 -56
27 -143 101 -143 120 0 25 33 21 78 -11 112 -80 214 -111 342 -103 151 9 259
63 366 181 56 62 94 83 94 52z m3448 -72 c-2 -15 -9 -29 -15 -32 -19 -6 -27
26 -14 55 15 33 34 18 29 -23z m2482 20 c6 -14 19 -28 30 -31 24 -6 25 -11 6
-32 -8 -9 -18 -32 -21 -51 -7 -38 -15 -53 -15 -27 0 24 -78 46 -91 26 -6 -10
-9 -11 -9 -1 0 7 7 15 15 18 21 8 19 32 -5 46 -28 18 -25 31 5 24 21 -5 29 -1
43 24 21 37 30 38 42 4z m343 -47 c-7 -4 -13 -18 -13 -30 0 -20 -5 -23 -39
-22 -38 0 -39 1 -34 28 3 16 1 27 -6 27 -6 0 -11 7 -11 15 0 8 7 15 15 15 8 0
20 8 27 19 11 17 13 17 43 -13 24 -24 29 -33 18 -39z m-3191 -44 c26 -23 22
-31 -14 -29 -27 1 -34 -3 -36 -21 -2 -16 5 -26 28 -38 79 -41 70 -152 -13
-171 -25 -5 -34 -2 -49 16 -24 29 -14 42 26 35 43 -9 62 12 45 49 -7 14 -20
28 -30 31 -34 11 -49 35 -49 79 0 35 4 45 23 54 32 15 48 14 69 -5z m-142 -28
c0 -10 -14 -17 -40 -21 -37 -6 -40 -9 -40 -40 0 -32 2 -34 35 -34 24 0 35 -5
35 -15 0 -10 -10 -15 -30 -15 -29 0 -30 -1 -30 -50 0 -54 6 -59 54 -40 22 8
26 7 26 -10 0 -14 -11 -22 -41 -30 -63 -17 -73 -12 -81 45 -3 28 -7 87 -7 132
l-1 82 28 4 c63 9 92 7 92 -8z m509 -247 c0 -134 -4 -252 -8 -262 -7 -19 -8
-19 -15 0 -11 26 -20 400 -12 458 5 30 12 46 22 46 12 0 14 -38 13 -242z
m-696 225 c3 -5 8 -65 11 -135 7 -125 7 -128 -13 -128 -19 0 -21 6 -21 68 0
95 -12 107 -43 46 l-25 -49 -9 35 c-6 21 -16 36 -28 39 -17 3 -18 -3 -11 -78
5 -69 4 -82 -9 -87 -9 -4 -17 -5 -19 -3 -10 11 -24 255 -16 263 5 5 23 -3 45
-23 20 -17 40 -31 45 -31 5 0 23 20 40 45 30 43 44 53 53 38z m3074 -81 c76
-73 117 -190 134 -382 19 -222 -11 -436 -86 -606 -73 -164 -271 -390 -400
-456 -72 -37 -215 -88 -244 -88 -9 0 12 15 45 34 187 100 350 267 441 451 81
164 112 290 120 482 9 212 -20 350 -102 497 -20 36 -33 71 -29 77 4 7 3 9 -2
6 -6 -3 -16 3 -22 14 -12 19 -12 19 25 3 21 -9 49 -18 63 -21 21 -4 23 -3 8 7
-10 6 -23 20 -29 32 l-11 21 28 -20 c16 -12 43 -35 61 -51z m-612 33 c185 -48
305 -165 361 -350 28 -93 26 -296 -5 -395 -39 -128 -86 -206 -186 -306 -144
-145 -266 -199 -638 -280 -117 -25 -268 -59 -337 -74 l-125 -27 -3 -197 c-1
-108 -3 -196 -5 -196 -1 0 -123 -27 -272 -60 -148 -33 -280 -60 -292 -60 l-23
0 0 410 c0 321 3 410 13 410 8 0 7 4 -3 10 -11 7 -6 10 20 11 19 0 44 2 55 5
11 2 45 7 75 10 30 3 57 9 60 12 3 4 21 8 40 10 19 2 39 7 44 12 5 5 15 6 22
3 12 -4 68 9 154 37 14 5 37 11 52 14 14 3 33 9 42 12 11 4 16 1 16 -10 0 -9
7 -16 16 -16 27 0 410 90 468 110 149 51 218 139 220 280 1 94 -21 151 -73
183 -54 33 -144 26 -406 -31 l-220 -47 -3 -191 -2 -192 -43 -10 c-42 -11 -408
-91 -500 -110 l-47 -10 2 392 3 391 285 63 c562 123 838 182 910 195 66 11
269 6 325 -8z m-6510 -5 c-3 -5 -10 -10 -16 -10 -5 0 -9 5 -9 10 0 6 7 10 16
10 8 0 12 -4 9 -10z m350 -21 c11 -10 52 -36 90 -59 39 -23 62 -40 53 -36 -32
10 -19 -5 17 -20 19 -8 48 -12 63 -9 22 4 23 4 7 -4 -17 -7 -14 -10 20 -15 66
-12 71 -14 41 -15 -77 -3 -247 67 -313 130 -33 30 -38 40 -27 52 8 8 21 1 49
-24z m-385 11 c0 -5 -3 -9 -7 -8 -5 1 -37 -13 -73 -31 -65 -34 -316 -131 -335
-131 -19 1 51 33 209 97 87 35 166 68 175 73 21 12 31 12 31 0z m3784 -12 c19
-30 76 -194 76 -219 0 -10 -7 -19 -15 -19 -8 0 -15 8 -15 18 0 28 -18 40 -53
33 -24 -5 -33 -13 -39 -39 -5 -18 -15 -32 -24 -32 -12 0 -14 10 -9 53 8 62 35
209 42 220 8 13 22 7 37 -15z m-150 -40 c3 -18 7 -79 10 -135 5 -97 4 -103
-14 -103 -12 0 -34 21 -60 59 -22 33 -44 62 -50 66 -6 4 -7 -23 -3 -75 6 -75
5 -80 -14 -80 -18 0 -21 9 -26 98 -14 203 -8 211 72 100 l52 -73 -1 80 c-2
101 -3 95 15 95 8 0 16 -13 19 -32z m3877 3 c-15 -12 -21 -23 -16 -31 5 -9 4
-11 -3 -6 -8 4 -16 -3 -22 -19 -15 -39 -12 -82 5 -89 8 -3 15 -17 15 -31 0
-16 4 -24 11 -20 6 4 8 13 5 21 -3 9 0 11 12 7 14 -5 15 -4 4 8 -7 8 -18 14
-24 14 -6 0 -12 6 -14 13 -1 7 0 8 3 2 2 -5 10 -7 15 -4 6 4 17 -1 24 -11 8
-10 17 -16 20 -12 4 4 1 15 -7 24 -13 17 -13 17 5 3 16 -13 20 -12 32 5 8 10
14 15 14 10 0 -4 -19 -29 -42 -54 -24 -26 -57 -65 -75 -86 l-32 -40 0 90 c0
50 3 107 8 127 10 43 49 97 71 97 10 0 7 -6 -9 -18z m120 -8 c13 -16 12 -17
-3 -4 -10 7 -18 15 -18 17 0 8 8 3 21 -13z m-7411 -18 c0 -17 -9 -29 -27 -38
-37 -18 -330 -100 -343 -95 -9 3 341 154 363 157 4 1 7 -10 7 -24z m7400 -25
c0 -5 -5 -10 -11 -10 -5 0 -7 5 -4 10 3 6 8 10 11 10 2 0 4 -4 4 -10z m-4330
-27 c23 -22 32 -41 38 -84 11 -76 -2 -116 -48 -140 -70 -38 -72 -34 -86 145
-5 69 -3 90 7 97 26 16 59 9 89 -18z m4340 2 c-7 -8 -17 -12 -23 -8 -6 4 -8 0
-4 -10 4 -11 2 -14 -9 -10 -11 4 -12 9 -3 19 6 8 15 12 19 9 5 -3 11 -1 15 5
3 5 9 10 12 10 3 0 0 -7 -7 -15z m-4496 -11 c3 -9 6 -37 6 -62 0 -26 5 -76 10
-112 5 -36 5 -69 1 -73 -16 -16 -49 12 -87 73 -20 33 -39 60 -41 60 -2 0 -2
-37 -1 -82 3 -68 0 -83 -13 -86 -12 -2 -17 16 -27 100 -23 198 -15 208 73 93
32 -41 59 -74 61 -73 1 2 -2 23 -6 48 -14 71 -12 130 4 130 8 0 17 -7 20 -16z
m-254 -101 c64 -162 71 -186 58 -194 -20 -13 -28 -11 -28 7 0 36 -18 52 -51
45 -25 -5 -35 -14 -44 -41 -19 -58 -38 -51 -31 11 9 65 36 211 43 222 12 20
33 1 53 -50z m-185 -3 c15 -16 16 -30 11 -79 -6 -50 -3 -67 14 -100 25 -50 25
-51 -5 -51 -21 0 -27 7 -38 48 -11 36 -19 48 -36 50 -20 3 -21 1 -12 -17 6
-11 11 -38 11 -60 0 -37 -2 -41 -25 -41 -24 0 -25 3 -25 53 0 30 -3 88 -6 129
-6 69 -5 76 12 81 44 11 81 6 99 -13z m4920 -87 c-4 -30 -12 -44 -26 -48 -13
-5 -18 -12 -14 -22 4 -13 3 -14 -10 -3 -12 10 -16 9 -21 -6 -4 -11 -24 -35
-45 -55 -22 -20 -39 -43 -39 -50 1 -9 8 -5 20 10 16 18 23 21 34 12 11 -9 15
-8 21 6 5 10 7 25 6 32 -2 13 0 13 13 2 9 -8 16 -10 16 -5 0 4 5 3 12 -4 10
-10 0 -25 -43 -70 -31 -31 -66 -70 -77 -86 l-22 -29 1 129 0 129 81 74 c80 73
81 74 90 50 5 -13 7 -43 3 -66z m-5107 55 c7 -7 12 -38 12 -69 0 -32 5 -61 10
-64 6 -3 10 -21 10 -40 0 -24 -7 -39 -26 -54 -24 -19 -90 -39 -98 -30 -2 2 -7
60 -11 128 -6 99 -5 125 6 132 21 13 83 11 97 -3z m1692 -52 c0 -10 -34 -22
-107 -40 -176 -41 -237 -50 -259 -38 -18 10 -17 11 10 21 15 6 78 22 140 36
61 13 120 26 131 28 46 10 85 7 85 -7z m-2176 -75 c66 -32 126 -91 140 -138
10 -31 0 -29 -70 13 -90 55 -142 79 -229 109 -44 15 -87 30 -95 33 -28 10 43
21 117 17 55 -2 87 -11 137 -34z m1679 -58 c24 -38 165 -286 316 -556 46 -81
84 -155 85 -164 2 -23 -106 -53 -506 -141 l-87 -20 -39 67 c-22 36 -66 114
-97 174 -32 59 -62 107 -65 107 -4 0 -29 -55 -55 -122 -103 -262 -105 -268
-128 -268 -93 0 -496 47 -516 60 -9 5 5 49 48 151 32 79 98 239 145 354 48
116 90 217 94 224 6 10 81 30 213 57 112 24 276 58 364 77 88 19 170 35 182
36 16 1 30 -10 46 -36z m3898 10 c13 -16 12 -17 -3 -4 -10 7 -18 15 -18 17 0
8 8 3 21 -13z m-3151 -76 c23 -48 30 -54 83 -72 57 -19 70 -38 46 -62 -20 -20
-6 -56 25 -64 85 -23 86 -86 1 -117 -63 -22 -282 -54 -315 -45 -24 6 -27 -15
-4 -24 15 -6 15 -8 -2 -20 -26 -19 -52 -16 -64 8 -9 16 -7 29 10 62 12 23 33
54 47 69 l25 26 -37 45 c-21 25 -38 48 -39 52 0 5 26 22 59 39 55 28 63 37 93
100 18 37 36 65 40 62 3 -4 18 -30 32 -59z m3090 59 c0 -3 -4 -8 -10 -11 -5
-3 -10 -1 -10 4 0 6 5 11 10 11 6 0 10 -2 10 -4z m-5805 -138 c50 -14 113 -34
142 -46 70 -27 183 -91 183 -103 0 -12 -124 -339 -140 -368 -10 -21 -12 -20
-83 15 -137 70 -311 114 -447 114 -68 0 -162 -23 -207 -51 -77 -48 -111 -135
-78 -198 27 -54 109 -84 345 -126 222 -40 358 -79 432 -122 149 -89 228 -230
228 -409 0 -113 -14 -173 -65 -279 -107 -223 -331 -373 -650 -434 -186 -36
-467 -25 -635 25 -81 24 -217 94 -265 136 l-42 37 9 63 c8 54 60 226 97 320
l10 28 65 -45 c85 -60 180 -102 291 -130 289 -74 522 -14 551 142 8 40 -18 89
-63 119 -33 22 -66 30 -288 70 -284 50 -404 96 -510 196 -110 102 -151 216
-142 388 15 291 241 537 587 640 141 42 205 49 400 46 161 -3 197 -7 275 -28z
m1014 -13 c-14 -14 -64 -28 -284 -78 l-100 -22 -7 -165 c-4 -91 -10 -190 -14
-220 l-8 -55 -7 50 c-4 28 -8 129 -8 226 -1 163 0 177 19 194 24 21 292 83
370 84 48 1 53 -1 39 -14z m-2269 -102 c-143 -146 -212 -277 -244 -459 -39
-222 2 -421 126 -612 l41 -63 -32 -42 c-72 -96 -117 -207 -132 -328 -34 -271
124 -479 427 -563 49 -14 106 -27 127 -31 l38 -6 -23 -19 c-17 -13 -25 -15
-31 -7 -6 8 -7 6 -4 -5 4 -11 -9 -28 -41 -54 -71 -56 -71 -57 -27 -50 58 10
922 205 1160 261 33 8 236 55 450 104 819 188 811 186 922 153 77 -24 141 -72
167 -125 9 -19 22 -64 29 -100 16 -72 45 -127 81 -150 38 -25 119 -45 321 -77
105 -17 433 -71 730 -120 297 -49 641 -105 765 -124 240 -38 507 -81 920 -147
140 -22 383 -60 540 -84 573 -89 520 -76 540 -125 11 -27 10 -33 -5 -50 -24
-27 -49 -26 -272 10 -103 17 -312 51 -463 75 -151 25 -297 49 -325 54 -51 10
-172 30 -590 96 -126 20 -473 76 -770 125 -297 49 -679 112 -850 140 -603 98
-590 95 -663 164 -45 41 -59 71 -77 157 -17 80 -40 118 -90 149 -65 40 -149
30 -550 -65 -82 -19 -188 -44 -235 -55 -47 -10 -157 -35 -245 -56 -166 -38
-490 -111 -945 -214 -146 -33 -323 -74 -395 -90 -285 -67 -685 -149 -685 -141
0 9 109 91 220 166 52 35 130 88 172 117 l77 52 -77 26 c-175 59 -298 154
-359 280 -92 190 -61 466 72 651 19 27 35 51 35 54 0 3 -18 29 -39 58 -46 61
-85 142 -109 229 -27 99 -24 357 6 461 44 155 118 283 216 375 52 50 142 102
176 102 9 0 -28 -44 -80 -97z m6978 27 c-7 -10 -14 -17 -17 -15 -4 4 18 35 25
35 2 0 -1 -9 -8 -20z m87 -91 c39 -1 87 -7 108 -12 l37 -9 0 -63 c0 -59 -3
-67 -40 -114 -22 -28 -52 -58 -66 -67 -25 -17 -26 -16 -70 27 -64 62 -74 86
-74 174 0 68 2 76 18 71 9 -3 49 -6 87 -7z m-7645 -41 c37 -40 14 -108 -38
-108 -33 0 -45 8 -61 37 -34 66 48 125 99 71z m174 -89 c3 1 6 -2 6 -6 0 -18
-25 -6 -28 12 -2 15 -1 16 6 7 5 -8 12 -13 16 -13z m4656 -113 c37 -71 20 -63
168 -83 23 -3 42 -9 42 -13 0 -5 -25 -30 -55 -55 -62 -53 -63 -55 -36 -166
l18 -77 -44 19 c-24 10 -64 30 -88 44 -24 15 -46 22 -49 16 -8 -13 -148 -93
-153 -87 -3 3 5 45 32 163 4 18 -8 32 -66 75 -80 60 -81 57 47 78 l71 11 32
70 c18 38 35 69 39 69 4 0 23 -29 42 -64z m-4830 -136 c48 -75 64 -87 30 -21
-11 23 -16 41 -11 41 14 0 51 -82 51 -112 0 -58 -11 -61 -41 -11 -32 54 -76
110 -82 103 -56 -75 -98 -151 -92 -169 3 -12 9 -21 13 -20 10 0 72 87 72 99 0
20 16 9 47 -33 17 -23 42 -53 55 -66 19 -21 23 -37 24 -103 2 -78 -2 -88 -24
-66 -19 19 -14 -3 8 -40 21 -33 28 -112 10 -112 -5 0 -17 26 -26 58 -9 31 -30
73 -45 93 -16 20 -29 43 -29 50 0 21 -15 0 -59 -81 -39 -71 -52 -120 -32 -120
5 0 14 14 21 30 7 17 20 36 30 43 9 7 20 21 24 32 l8 20 8 -20 c4 -11 18 -29
30 -40 44 -40 111 -205 82 -205 -5 0 -19 21 -30 48 -11 26 -36 69 -55 95 l-34
48 -28 -43 c-15 -23 -38 -66 -50 -96 -12 -29 -26 -53 -31 -53 -15 0 -17 42 -3
83 9 30 10 41 1 50 -16 16 -15 58 3 101 8 20 15 39 15 42 0 3 -7 5 -15 5 -19
0 -21 61 -3 90 9 14 10 25 2 38 -6 9 -10 58 -9 107 1 70 6 97 20 119 21 31 33
20 15 -13 -7 -14 -7 -21 0 -21 5 0 10 3 10 8 0 13 60 112 69 112 4 0 27 -31
51 -70z m7429 -36 l-34 -36 98 6 c53 4 97 5 97 3 0 -3 -30 -23 -67 -44 -82
-49 -245 -144 -255 -150 -27 -15 3 13 72 67 44 35 80 65 80 67 0 3 -23 2 -51
-2 -34 -5 -50 -4 -48 3 5 12 127 122 136 122 4 0 -9 -16 -28 -36z m-193 -82
l-29 -27 23 32 c13 18 26 30 29 28 3 -3 -8 -18 -23 -33z m-2776 -343 c107
-188 196 -347 198 -355 2 -8 0 -14 -5 -14 -4 0 -145 -29 -311 -65 -167 -36
-308 -63 -313 -60 -4 3 -29 44 -55 91 -34 63 -50 83 -63 80 -25 -8 -523 -114
-751 -160 l-204 -42 -24 -59 c-13 -33 -27 -63 -31 -67 -3 -4 -49 -16 -101 -27
-105 -22 -503 -108 -537 -116 -25 -6 -42 -51 227 595 179 429 170 410 195 409
19 0 19 -1 1 -8 -11 -4 -15 -10 -9 -14 10 -6 95 -18 123 -17 67 2 144 -2 163
-10 16 -8 7 -9 -38 -6 -33 3 -52 2 -42 0 9 -3 17 -10 17 -14 0 -10 44 -5 91
10 25 7 196 -4 206 -14 5 -5 -3 -32 -51 -160 -14 -39 -24 -71 -22 -73 5 -5
600 119 609 127 5 4 -12 44 -37 90 -25 45 -46 84 -46 86 0 2 18 4 39 4 22 0
42 4 45 8 3 5 21 9 41 10 20 1 41 5 48 9 7 4 17 8 24 9 65 10 229 49 234 56 3
5 21 11 40 14 19 3 54 9 79 14 25 4 50 8 55 9 6 0 98 -153 205 -340z m2750
307 c0 -2 -8 -10 -17 -17 -16 -13 -17 -12 -4 4 13 16 21 21 21 13z m670 -165
l0 -59 -112 -26 c-62 -14 -230 -50 -373 -81 -143 -31 -287 -62 -320 -70 -122
-29 -689 -149 -919 -195 -82 -16 -157 -32 -168 -35 -16 -6 -18 0 -18 54 0 48
3 61 18 65 24 7 236 54 641 141 190 41 429 93 531 115 102 22 291 63 420 91
129 28 237 53 239 55 2 2 17 4 33 4 28 0 28 -1 28 -59z m-1710 -40 c0 -15
-194 -61 -255 -60 l-40 1 35 15 c76 33 260 65 260 44z m-6192 -222 c61 -71 92
-132 91 -179 -1 -43 -1 -44 -11 -15 -11 34 -88 147 -103 152 -25 8 -110 -156
-90 -175 7 -7 55 51 70 86 10 22 12 20 73 -54 57 -71 80 -122 50 -112 -7 3
-32 30 -56 61 -24 31 -46 57 -50 57 -4 -1 -20 -19 -37 -41 -16 -23 -40 -55
-52 -71 -21 -29 -23 -29 -23 -9 0 12 5 32 11 43 8 15 8 22 0 28 -7 3 -14 23
-18 43 -6 37 -7 35 91 184 11 18 22 33 24 33 2 0 15 -14 30 -31z m4910 -155
c4 -201 -1 -235 -39 -273 -37 -37 -67 -46 -429 -121 -162 -33 -314 -65 -337
-70 -62 -15 -133 -13 -133 3 0 21 39 31 629 152 284 58 265 39 269 273 3 189
5 206 25 200 9 -4 13 -48 15 -164z m2763 74 c9 -23 22 -34 39 -36 39 -6 42
-15 15 -52 -15 -21 -23 -41 -19 -54 4 -19 1 -21 -43 -21 -26 0 -56 -4 -65 -9
-16 -7 -18 -3 -18 37 0 35 -5 48 -22 59 -26 18 -18 34 22 43 20 4 36 17 45 36
20 37 28 37 46 -3z m-330 -76 c-6 -11 -8 -22 -5 -25 8 -8 -50 -45 -63 -40 -7
3 -13 14 -13 26 0 11 -8 29 -17 40 -15 17 -16 21 -3 25 8 3 23 15 34 27 l20
23 28 -29 c23 -23 27 -32 19 -47z m-1611 -40 l0 -37 -277 -58 c-153 -31 -286
-57 -295 -57 -14 0 -18 8 -18 35 0 19 1 35 3 35 1 1 128 27 282 60 154 32 286
59 293 59 7 1 12 -13 12 -37z m1380 -70 c80 -37 172 -134 215 -224 58 -122 70
-184 70 -353 0 -129 -3 -160 -23 -225 -35 -111 -79 -187 -153 -262 -120 -122
-238 -152 -379 -96 -63 26 -74 27 -355 33 -159 3 -312 11 -340 17 -143 31
-234 125 -294 303 -37 111 -47 212 -32 331 14 118 41 194 96 274 49 71 93 111
158 140 39 18 68 20 360 20 l318 0 57 27 c121 57 204 62 302 15z m750 3 c0 -8
7 -15 16 -15 11 0 14 -5 10 -16 -3 -9 -6 -23 -6 -33 0 -13 -9 -17 -35 -17 -21
0 -34 4 -31 11 2 5 -3 17 -11 27 -13 14 -12 17 5 22 11 4 23 13 26 21 7 20 26
19 26 0z m-7877 -18 c77 -86 82 -92 52 -66 -65 55 -60 54 -102 9 -20 -23 -39
-38 -40 -33 -2 6 10 25 27 43 16 17 30 38 30 46 0 18 18 18 33 1z m3786 -143
c18 -13 22 -23 17 -45 -6 -32 -4 -34 26 -18 37 20 30 1 -18 -43 -26 -23 -54
-41 -63 -40 -9 2 -34 5 -56 5 -38 2 -40 3 -37 31 2 16 -2 32 -9 37 -10 6 -10
11 0 23 8 9 19 16 25 16 6 0 27 11 46 25 42 29 40 29 69 9z m3989 -136 c14
-16 31 -28 37 -28 6 0 20 -6 30 -14 17 -12 14 -16 -41 -52 -41 -28 -67 -54
-85 -87 l-25 -47 -13 49 c-11 42 -45 93 -61 88 -3 0 -14 4 -25 11 -19 11 -19
13 15 45 19 19 48 62 65 96 l29 62 24 -48 c13 -26 36 -60 50 -75z m-7766 77
c2 -13 12 -21 31 -23 35 -4 34 -18 -2 -37 -18 -9 -32 -26 -36 -44 l-6 -29 -24
24 c-13 13 -33 24 -43 24 -20 0 -47 45 -37 61 4 5 22 9 41 9 27 0 37 5 46 25
12 27 24 23 30 -10z m5776 -110 c-3 -17 -13 -21 -83 -27 -44 -4 -90 -13 -103
-20 -83 -44 -104 -251 -33 -338 32 -40 50 -47 144 -56 57 -5 67 -8 67 -25 0
-16 -7 -19 -47 -19 -105 0 -175 38 -215 119 -38 74 -39 181 -4 256 30 65 80
113 125 121 20 3 43 7 51 9 8 1 34 2 58 1 37 -1 42 -4 40 -21z m-533 -20 c27
-26 31 -54 15 -86 -8 -14 -6 -25 6 -44 14 -22 15 -32 5 -65 -14 -49 -48 -73
-102 -73 -58 0 -82 27 -89 100 -8 90 2 142 34 170 38 32 98 32 131 -2z m-201
-32 c-3 -16 -22 -78 -42 -140 -28 -86 -40 -113 -56 -117 -11 -3 -22 -4 -24 -2
-2 2 12 53 31 112 l34 109 -53 3 c-45 2 -54 6 -54 21 0 15 12 21 58 29 31 5
69 10 85 11 25 1 27 -1 21 -26z m700 -120 c-4 -38 -10 -81 -14 -98 -7 -24 -8
-16 -9 38 -1 37 -5 67 -11 67 -5 0 -10 -4 -10 -10 0 -5 -9 -10 -21 -10 -11 0
-30 -5 -41 -11 -16 -8 -22 -8 -29 2 -14 23 -22 -17 -16 -74 5 -43 4 -49 -6
-32 -15 26 -15 144 1 173 11 20 20 22 87 22 l74 0 -5 -67z m-1179 36 c-191
-51 -369 -89 -379 -79 -6 6 -6 13 0 19 20 19 324 79 404 79 44 0 44 0 -25 -19z
m-451 -61 c3 -13 6 -34 5 -48 l0 -25 -10 25 c-13 31 -13 32 -33 24 -11 -4 -15
-13 -11 -25 4 -11 2 -19 -4 -19 -5 0 -11 -6 -14 -12 -2 -7 -2 -2 0 12 3 19 2
22 -7 14 -6 -6 -10 -29 -8 -50 3 -33 8 -42 38 -56 32 -16 33 -18 10 -18 -44 1
-90 52 -90 100 0 70 108 137 124 78z m505 18 c-5 -6 -225 -61 -316 -80 -38 -8
-76 -18 -87 -22 -14 -5 -17 -3 -14 7 3 9 69 28 199 56 193 41 226 47 218 39z
m-4526 -40 c2 -12 8 -29 12 -38 5 -14 2 -18 -13 -18 -12 0 -22 -9 -25 -21 -6
-21 -7 -20 -38 10 -24 24 -29 35 -20 44 6 6 11 19 11 28 0 27 67 22 73 -5z
m3788 -36 c21 0 7 -37 -20 -53 -37 -22 -51 -22 -51 1 0 10 -5 23 -11 29 -8 8
-6 13 9 17 11 4 23 14 26 22 5 14 8 14 22 0 8 -9 20 -16 25 -16z m-605 -158
c14 -9 16 -14 6 -18 -7 -3 -26 -17 -42 -31 l-30 -25 0 30 c0 17 -5 32 -12 34
-7 3 -6 12 6 30 16 25 18 26 35 10 10 -9 26 -23 37 -30z m1264 -38 c0 -57 -3
-74 -14 -74 -11 0 -15 18 -18 71 -3 67 5 95 24 83 4 -3 8 -39 8 -80z m155 61
c49 -49 16 -125 -55 -125 -44 0 -50 10 -52 85 0 30 4 50 13 56 26 17 69 9 94
-16z m-353 -60 c2 -55 0 -75 -9 -75 -9 0 -13 19 -13 59 0 33 -3 66 -6 75 -4
10 -1 16 9 16 12 0 16 -16 19 -75z m128 66 c0 -16 -32 -85 -52 -114 -30 -43
-41 -21 -13 27 31 54 31 66 0 66 -16 0 -25 6 -25 15 0 11 12 15 45 15 25 0 45
-4 45 -9z m716 -80 c12 -14 24 -38 27 -52 6 -22 3 -28 -16 -33 -13 -3 -29 -17
-37 -30 l-13 -25 -22 32 c-12 18 -29 31 -38 31 -24 -2 -11 43 25 84 15 18 28
38 29 45 0 7 6 4 12 -7 7 -10 21 -30 33 -45z m-4826 -11 c7 -16 20 -30 28 -30
12 0 13 -3 4 -12 -7 -7 -12 -25 -12 -40 0 -23 -4 -28 -23 -28 -13 0 -32 9 -42
20 -10 11 -22 20 -26 20 -4 0 -11 -9 -14 -20 -3 -11 -11 -20 -16 -20 -5 0 -2
12 8 26 16 25 16 27 0 39 -25 18 -21 25 13 25 23 0 33 6 42 25 15 33 23 32 38
-5z m7406 -82 c24 -7 44 -15 44 -19 0 -4 -13 -19 -30 -32 -26 -22 -30 -32 -30
-77 l0 -51 -40 23 -40 23 -41 -24 -42 -23 5 52 c5 49 4 53 -28 78 -19 15 -34
30 -34 34 0 4 19 11 43 15 38 8 45 14 71 62 l29 54 24 -52 c22 -46 30 -53 69
-63z m-4736 83 c14 -27 13 -34 -5 -27 -22 8 -119 -16 -103 -26 8 -5 2 -8 -17
-8 -53 -1 -88 -44 -42 -53 19 -4 18 -4 -5 -6 -23 -1 -28 3 -28 23 0 14 -4 27
-9 30 -5 3 -46 -6 -92 -19 -45 -14 -95 -25 -111 -25 -17 0 -28 -5 -28 -13 0
-8 8 -14 18 -14 45 1 72 -4 72 -11 0 -5 -15 -7 -32 -6 -30 3 -31 3 -8 -5 23
-8 23 -9 3 -10 -12 -1 -29 -4 -38 -7 -11 -5 -19 2 -27 23 l-11 29 -58 -15
c-32 -9 -69 -26 -82 -38 -14 -12 -33 -23 -44 -26 -12 -3 -8 -5 12 -7 17 -1 33
-2 38 -1 4 0 7 -3 7 -8 0 -10 -98 -26 -106 -18 -3 2 -6 24 -7 48 -2 41 0 45
33 61 19 9 73 22 119 28 46 6 90 17 97 25 8 7 38 18 67 24 83 17 178 38 237
54 82 22 137 21 150 -2z m-3013 -88 c3 -10 15 -26 27 -36 20 -16 20 -18 4 -28
-11 -6 -18 -22 -18 -41 0 -26 -2 -29 -15 -18 -9 8 -28 10 -50 6 l-36 -7 6 34
c4 21 3 37 -4 41 -17 11 -13 26 7 26 11 0 27 9 37 20 22 25 34 25 42 3z m5593
-19 c0 -8 7 -17 15 -20 8 -4 15 -10 15 -15 0 -5 -7 -9 -15 -9 -9 0 -15 -9 -15
-25 0 -21 -5 -25 -29 -25 -25 0 -28 3 -23 25 2 14 -1 32 -8 40 -7 9 -11 17 -9
19 46 36 69 39 69 10z m-5290 -24 c0 -5 -4 -10 -10 -10 -5 0 -10 5 -10 10 0 6
5 10 10 10 6 0 10 -4 10 -10z m2670 -27 c1 -10 3 -93 6 -185 6 -150 4 -169
-12 -197 -20 -35 -68 -54 -96 -39 -23 11 -22 33 2 87 11 24 18 47 14 50 -3 3
-21 -12 -40 -33 -42 -47 -43 -34 -3 45 17 34 28 63 26 65 -3 3 -16 -9 -31 -26
-32 -39 -33 -30 -1 48 32 78 31 86 -2 39 -14 -20 -30 -37 -34 -37 -7 0 -2 151
6 177 2 7 27 14 57 16 29 2 65 4 81 5 20 2 27 -3 27 -15z m-883 -35 c18 -20
18 -20 -12 -14 -18 4 -62 -2 -110 -14 -44 -11 -141 -34 -215 -50 -74 -17 -181
-42 -238 -57 -99 -25 -105 -28 -139 -72 -20 -25 -46 -54 -57 -64 -20 -18 -20
-18 -27 0 -7 16 -8 15 -8 -4 -1 -27 -20 -40 -32 -22 -13 22 -11 68 7 104 24
51 30 53 469 154 341 78 328 76 362 39z m635 -150 c4 -205 1 -239 -20 -268
-26 -35 -85 -36 -90 -2 -2 13 4 35 13 48 27 41 8 40 -30 -1 -19 -22 -35 -35
-35 -29 0 5 18 43 40 84 22 41 39 80 39 85 0 6 -17 -10 -38 -35 -22 -25 -42
-42 -46 -38 -4 4 11 43 32 87 43 87 40 107 -4 39 l-28 -42 -3 89 c-2 49 -1 94
2 101 4 12 36 17 134 22 l32 2 2 -142z m623 102 c17 -7 25 -16 23 -28 -3 -14
-13 -16 -61 -14 -45 3 -57 1 -57 -11 0 -18 17 -32 54 -44 85 -27 93 -153 11
-153 -37 0 -125 30 -125 43 1 32 15 37 57 21 84 -33 103 13 20 50 -77 34 -98
86 -51 133 22 21 31 24 64 19 21 -3 51 -11 65 -16z m-865 -196 c0 -151 -2
-180 -16 -203 -28 -42 -57 -60 -95 -61 -61 0 -64 9 -64 229 l0 196 60 6 c33 3
72 6 87 7 l26 2 2 -176z m1224 125 c18 -27 101 -247 95 -254 -12 -12 -49 10
-57 35 -10 29 -41 40 -108 40 -24 0 -34 -5 -34 -15 0 -9 -9 -15 -25 -15 -14 0
-25 4 -25 9 0 4 23 56 50 115 54 113 73 129 104 85z m-1717 5 c-3 -3 -12 -4
-19 -1 -8 3 -5 6 6 6 11 1 17 -2 13 -5z m-72 -24 c-35 -17 -36 -19 -10 -14 17
3 46 10 65 15 19 5 46 9 60 8 14 0 -18 -11 -70 -23 -52 -13 -164 -39 -249 -60
-165 -39 -196 -52 -211 -92 -6 -14 -10 -112 -10 -217 l0 -192 -49 -18 c-27 -9
-51 -17 -55 -17 -3 0 -6 101 -6 224 0 215 1 224 23 257 29 43 74 59 264 98
273 56 311 60 248 31z m2161 -41 c79 -14 114 -43 114 -94 0 -22 -8 -43 -21
-56 -19 -19 -29 -21 -75 -15 l-53 6 -3 -49 c-3 -46 -4 -48 -25 -40 -22 8 -23
13 -23 134 0 89 3 125 12 125 6 0 40 -5 74 -11z m3307 -11 c-6 -7 -13 -25 -17
-40 -5 -21 -2 -30 15 -38 17 -10 25 -8 44 10 13 12 21 28 18 36 -3 8 -1 14 5
14 16 0 20 -23 9 -48 -17 -37 -78 -41 -103 -7 -20 26 -17 48 7 74 21 23 40 22
22 -1z m-6353 -22 c0 -22 -7 -26 -92 -46 -51 -12 -167 -39 -258 -61 -329 -79
-402 -93 -435 -85 -67 17 -97 96 -56 147 l19 24 -5 -45 c-4 -37 -1 -48 16 -64
25 -23 -25 -33 626 119 177 41 185 42 185 11z m1037 -92 c-3 -65 -10 -109 -17
-114 -6 -4 -57 -17 -113 -29 -56 -12 -170 -38 -253 -57 -83 -19 -154 -34 -158
-34 -10 0 3 189 15 211 10 20 82 40 289 83 91 19 174 37 185 39 60 14 58 16
52 -99z m2445 45 c73 -19 102 -98 52 -144 l-25 -23 26 -51 25 -51 -25 0 c-20
0 -30 10 -50 50 -21 42 -49 70 -69 70 -3 0 -6 -23 -6 -51 0 -47 -2 -50 -22
-47 -22 3 -23 7 -26 135 l-3 131 43 -5 c24 -3 60 -9 80 -14z m-3189 -499 c-5
-4 -22 -10 -39 -13 -43 -8 -44 -3 -44 236 0 151 3 197 13 198 24 1 61 10 66
15 3 3 7 -92 9 -212 1 -120 -1 -221 -5 -224z m3577 425 c47 -8 86 -15 88 -15
1 0 2 -12 2 -26 0 -19 -4 -24 -17 -20 -10 3 -39 8 -65 12 l-48 6 0 -30 c0 -28
4 -32 38 -37 63 -11 72 -16 72 -36 0 -17 -5 -19 -56 -13 l-56 7 4 -29 c3 -27
7 -29 63 -39 51 -8 60 -13 63 -32 4 -27 -9 -28 -108 -9 l-65 12 -3 132 c-1 73
-1 132 0 132 2 0 41 -7 88 -15z m380 -77 c26 -28 26 -68 -1 -102 -25 -31 -57
-33 -87 -6 -29 27 -29 76 0 107 27 29 61 29 88 1z m780 -158 c29 -57 46 -81
63 -84 12 -3 48 -10 81 -17 l58 -11 -57 -58 -58 -59 13 -73 c7 -40 15 -79 18
-86 2 -8 -32 5 -77 28 l-82 41 -79 -45 c-90 -51 -88 -53 -65 59 l13 70 -60 61
-60 62 78 14 79 13 22 45 c35 69 64 120 69 120 2 0 22 -36 44 -80z m-5054 33
c10 -48 13 -53 34 -61 l21 -8 -20 -18 c-13 -12 -21 -31 -21 -53 0 -31 -2 -33
-21 -22 -21 11 -58 9 -93 -6 -18 -8 -19 -5 -12 35 5 33 3 47 -11 62 -15 17
-15 21 -3 28 8 6 25 10 37 10 21 0 63 35 63 52 0 20 20 5 26 -19z m2642 12 c3
-3 1 -10 -4 -15 -11 -11 -205 -30 -306 -30 -61 0 -68 2 -68 20 0 12 7 20 18
21 232 16 347 17 360 4z m-3168 -20 c7 -8 19 -15 26 -15 8 0 14 -10 14 -23 0
-13 5 -28 12 -35 9 -9 8 -12 -5 -12 -11 0 -20 -11 -24 -30 -5 -29 -7 -30 -24
-14 -12 11 -27 14 -46 10 -28 -6 -29 -5 -29 31 0 21 -2 45 -4 53 -3 9 3 16 18
18 13 2 26 10 29 18 7 18 17 18 33 -1z m5090 -10 c0 -8 11 -17 25 -21 24 -6
25 -8 10 -24 -9 -9 -13 -24 -9 -34 5 -13 1 -16 -23 -14 -16 1 -34 -1 -41 -6
-8 -5 -12 1 -12 18 0 14 -4 28 -10 31 -15 9 -12 25 5 25 8 0 20 9 27 20 15 24
28 26 28 5z m-3530 -15 c-21 -13 -50 -12 -50 1 0 6 6 9 13 6 8 -3 20 -1 28 3
7 5 16 7 18 4 3 -3 -1 -9 -9 -14z m1065 12 c18 -12 16 -64 -2 -84 -17 -19 -15
-19 97 -15 841 30 1101 30 1081 -1 -5 -9 -55 -16 -157 -22 -215 -14 -898 -30
-907 -21 -10 10 -117 -7 -372 -59 -110 -23 -222 -45 -250 -50 -192 -35 -228
-41 -231 -37 -2 2 84 28 190 58 107 29 193 56 191 58 -11 10 -852 -158 -995
-199 -36 -11 -162 -42 -280 -70 -118 -27 -289 -68 -380 -90 -185 -45 -205 -47
-214 -24 -11 29 3 52 42 67 20 8 195 51 387 96 193 45 406 95 475 111 69 16
280 63 470 105 190 41 372 82 405 89 190 45 411 93 430 95 6 0 15 -3 20 -7z
m-2365 -16 c0 -2 -9 -6 -20 -9 -11 -3 -18 -1 -14 4 5 9 34 13 34 5z m953 -3
c-7 -2 -21 -2 -30 0 -10 3 -4 5 12 5 17 0 24 -2 18 -5z m252 -3 c-14 -22 -40
-27 -70 -13 l-30 14 36 -5 c20 -2 42 0 50 5 18 11 22 11 14 -1z m-308 -6 c-3
-3 -12 -4 -19 -1 -8 3 -5 6 6 6 11 1 17 -2 13 -5z m100 0 c-3 -3 -12 -4 -19
-1 -8 3 -5 6 6 6 11 1 17 -2 13 -5z m-128 -13 c23 -15 -2 -19 -29 -5 -22 12
-22 14 -5 14 11 0 26 -4 34 -9z m212 -11 c-26 -22 -56 -26 -67 -9 -5 8 1 10
18 6 17 -5 30 -2 38 8 7 8 18 15 24 15 6 -1 0 -10 -13 -20z m-271 -5 c0 -8 -4
-15 -10 -15 -5 0 -10 7 -10 15 0 8 5 15 10 15 6 0 10 -7 10 -15z m5021 -102
c8 -9 36 -26 63 -38 l49 -22 -56 -32 c-67 -38 -73 -47 -82 -125 l-8 -59 -24
61 c-28 69 -40 75 -108 46 -20 -8 -39 -13 -42 -10 -3 2 9 25 27 51 l31 46 -20
33 c-12 19 -28 39 -36 46 -8 7 -15 18 -15 26 0 10 13 9 57 -7 65 -22 70 -20
104 52 l24 52 11 -52 c7 -28 18 -59 25 -68z m-4841 104 c0 -2 -10 -12 -22 -23
l-23 -19 19 23 c18 21 26 27 26 19z m-170 -38 c0 -6 9 -8 23 -4 20 6 20 5 7
-8 -8 -8 -25 -18 -37 -22 -18 -5 -23 -2 -23 13 0 10 3 22 7 25 10 11 23 8 23
-4z m5631 -107 c28 -24 31 -79 4 -98 -31 -23 -71 -17 -94 12 -27 34 -26 50 4
79 29 30 55 32 86 7z m-2016 -51 c61 -11 187 -34 280 -52 l170 -33 -60 -9
c-33 -4 -198 -7 -367 -5 -169 2 -306 3 -305 2 1 -1 94 -19 207 -39 113 -20
349 -65 525 -100 333 -67 774 -149 860 -160 122 -16 165 -38 165 -84 0 -36
-12 -51 -45 -59 -33 -9 -58 -6 -340 42 -409 71 -605 103 -737 122 -27 3 -54 2
-65 -5 -16 -9 -16 -10 -1 -11 9 0 18 -5 20 -10 4 -12 102 -42 136 -42 23 0 23
0 4 -14 -15 -10 -28 -11 -44 -5 -14 5 -51 12 -84 16 -32 3 -77 9 -99 12 -22 3
-38 3 -35 -1 7 -6 188 -39 213 -38 9 0 17 -1 17 -4 0 -22 -194 -147 -345 -222
-142 -71 -254 -115 -402 -160 -535 -164 -1093 -193 -1670 -86 -169 31 -244 51
-442 116 -304 100 -514 199 -734 345 -113 76 -256 183 -257 194 0 4 12 9 28
11 15 3 142 35 284 71 141 37 291 74 335 82 43 9 124 28 181 41 57 14 167 36
245 49 140 23 152 24 1072 30 512 3 955 10 985 14 95 14 191 12 305 -8z
m-4386 -61 l35 -30 -29 -30 c-28 -30 -55 -39 -55 -20 0 6 -9 10 -20 10 -24 0
-27 15 -5 24 11 4 14 13 9 32 -4 17 -2 29 7 35 19 12 20 12 58 -21z m5996
-192 c34 -15 32 -27 -5 -26 -22 1 -30 6 -30 20 0 21 1 22 35 6z m-5500 -238
c3 -5 -3 -10 -14 -10 -12 0 -21 5 -21 10 0 6 6 10 14 10 8 0 18 -4 21 -10z
m94 -36 c-27 -13 -50 -34 -58 -51 -12 -26 -14 -27 -26 -9 -9 12 -20 16 -35 11
-19 -6 -20 -5 -11 12 20 39 63 56 144 59 30 1 30 1 -14 -22z m350 -34 c18 -32
28 -40 52 -40 34 0 38 -19 9 -45 -14 -13 -20 -31 -20 -61 l0 -43 -27 15 c-36
18 -47 18 -85 -2 l-31 -16 7 45 c6 40 4 47 -19 65 -31 25 -32 42 -2 42 31 0
64 25 71 55 9 35 19 31 45 -15z m4084 -120 c-7 -43 -11 -49 -23 -30 -7 11 -11
11 -24 1 -14 -12 -16 -11 -16 6 0 10 -5 24 -12 31 -8 8 -5 17 12 35 23 24 25
24 47 8 18 -13 21 -22 16 -51z m276 -29 c24 -23 28 -30 16 -35 -8 -3 -15 -17
-15 -31 0 -22 -3 -25 -24 -19 -13 3 -27 1 -30 -5 -14 -22 -26 -10 -26 23 0 19
-5 38 -10 41 -8 5 22 34 56 54 1 1 16 -12 33 -28z m-4044 -31 c4 -12 -1 -36
-12 -58 -22 -46 -60 -51 -80 -12 -17 34 0 49 27 25 22 -20 26 -14 10 15 -14
26 -2 50 25 50 15 0 26 -8 30 -20z m75 -111 c0 -6 -4 -7 -10 -4 -5 3 -10 11
-10 16 0 6 5 7 10 4 6 -3 10 -11 10 -16z m253 -25 c18 -9 34 -18 35 -19 9 -8
-44 -65 -60 -65 -10 0 -18 -4 -18 -10 0 -5 9 -10 20 -10 11 0 20 -7 20 -15 0
-8 -5 -15 -10 -15 -15 0 -80 28 -80 34 0 18 43 116 51 116 6 0 24 -7 42 -16z
m3005 -16 c6 -6 12 -30 12 -54 0 -32 4 -44 15 -44 8 0 15 -7 15 -15 0 -9 -9
-15 -24 -15 -13 0 -26 7 -30 15 -8 23 -28 18 -21 -5 5 -16 2 -20 -19 -20 -19
0 -26 5 -26 20 0 10 7 23 16 28 13 7 12 11 -10 26 -32 20 -33 50 -4 70 22 16
51 13 76 -6z m-2723 -116 c6 -36 0 -101 -11 -112 -3 -2 -13 6 -23 19 -15 19
-23 22 -49 16 -43 -9 -42 9 4 68 46 59 70 61 79 9z m2435 28 c0 -6 -7 -27 -15
-47 -20 -49 -19 -56 10 -51 16 4 25 1 25 -8 0 -14 -97 -50 -108 -40 -5 6 7 67
23 107 5 13 1 16 -22 11 -37 -6 -26 4 23 22 48 18 64 19 64 6z m-2175 -72 c39
-18 44 -57 10 -84 -18 -14 -26 -28 -22 -38 4 -9 2 -16 -4 -16 -6 0 -13 9 -16
20 -6 24 -19 26 -27 5 -3 -8 -11 -15 -17 -15 -13 0 -7 68 10 113 11 30 27 33
66 15z m1895 -7 c0 -5 -7 -11 -15 -15 -12 -4 -14 -16 -9 -61 6 -47 4 -55 -10
-55 -9 0 -16 6 -16 13 0 6 -5 29 -11 50 -7 27 -15 37 -30 37 -29 0 -14 18 24
29 42 12 67 13 67 2z m-1592 -69 c2 -8 -5 -11 -19 -10 -15 2 -24 -3 -27 -14
-2 -12 2 -15 17 -11 15 4 21 1 21 -11 0 -10 -9 -16 -25 -16 -14 0 -25 -4 -25
-9 0 -5 11 -12 25 -15 14 -4 25 -11 25 -16 0 -14 -88 -12 -92 2 -2 6 0 35 6
65 l10 54 39 -3 c22 -2 42 -9 45 -16z m1290 6 c20 -20 14 -28 -18 -21 -41 8
-38 -10 5 -26 27 -9 35 -18 35 -36 0 -35 -43 -62 -75 -47 -31 14 -33 34 -2 30
27 -3 38 16 11 21 -47 8 -59 49 -22 75 27 19 50 20 66 4z m-555 -36 c17 -15
19 -34 6 -82 -3 -11 3 -14 19 -13 20 3 22 -2 22 -40 0 -39 -2 -42 -27 -44 -16
-1 -44 -5 -65 -8 -29 -6 -40 -3 -57 14 -25 25 -27 58 -5 83 14 14 14 20 4 33
-17 20 -5 60 22 73 27 12 55 6 81 -16z m-505 -44 c-3 -51 -2 -53 25 -56 47 -6
29 -22 -24 -22 -48 0 -51 1 -45 23 3 12 6 41 6 65 0 36 3 42 21 42 18 0 20 -5
17 -52z m778 -33 c0 -30 -3 -35 -23 -35 -16 0 -23 6 -23 19 0 11 -3 26 -6 35
-5 12 1 16 23 16 26 0 29 -3 29 -35z"/>
<path d="M4979 9265 c-3 -2 -3 -20 -1 -40 4 -37 22 -39 22 -2 0 24 -13 50 -21
42z"/>
<path d="M4465 8742 c5 -18 0 -26 -29 -43 -41 -24 -50 -55 -13 -45 71 20 67
21 61 -13 -9 -42 5 -39 48 12 50 61 52 79 8 88 -19 4 -46 11 -59 15 -20 6 -22
4 -16 -14z"/>
<path d="M4295 8630 c-9 -27 1 -40 31 -40 29 0 42 24 24 45 -18 21 -48 19 -55
-5z"/>
<path d="M4195 8605 c-70 -19 -327 -109 -372 -131 -37 -18 -74 -66 -61 -79 13
-13 497 161 505 182 3 8 -1 20 -8 28 -12 11 -23 11 -64 0z"/>
<path d="M3195 8066 c-127 -46 -137 -52 -133 -84 2 -16 10 -28 21 -30 24 -5
207 66 232 90 15 14 17 22 9 36 -17 26 -31 24 -129 -12z"/>
<path d="M3565 7871 c-49 -15 -146 -48 -215 -74 -263 -98 -459 -170 -550 -204
-103 -37 -129 -55 -131 -87 -1 -16 -2 -17 -6 -4 -4 14 -8 15 -24 5 -10 -6 -19
-15 -19 -19 0 -15 117 0 165 21 28 13 77 31 110 41 58 17 611 217 681 246 19
8 37 21 41 29 3 9 18 15 39 15 31 0 34 3 34 30 0 37 -6 37 -125 1z"/>
<path d="M6216 7821 c-10 -16 5 -42 23 -39 21 4 21 42 -1 46 -9 2 -19 -1 -22
-7z"/>
<path d="M6120 7754 c0 -64 1 -66 23 -60 12 3 28 6 35 6 8 0 12 17 12 49 0 53
-1 55 -42 65 l-28 6 0 -66z"/>
<path d="M6047 7783 c-11 -10 -8 -41 4 -49 16 -9 43 21 36 40 -7 16 -28 21
-40 9z"/>
<path d="M6220 7724 c0 -33 33 -30 38 4 3 17 -2 22 -17 22 -16 0 -21 -6 -21
-26z"/>
<path d="M7553 8096 c-4 -7 -19 -13 -33 -12 -19 1 -26 -5 -28 -21 -3 -18 2
-23 18 -23 17 0 21 -5 17 -20 -4 -15 0 -20 13 -20 11 0 22 5 25 10 4 6 18 9
33 8 33 -4 44 27 12 35 -14 3 -20 13 -20 31 0 28 -23 36 -37 12z"/>
<path d="M7660 8030 c0 -11 7 -20 15 -20 8 0 15 9 15 20 0 11 -7 20 -15 20 -8
0 -15 -9 -15 -20z"/>
<path d="M7664 8596 c-4 -9 -4 -20 0 -23 3 -4 12 -1 18 5 9 9 9 15 0 24 -9 9
-13 7 -18 -6z"/>
<path d="M7100 8299 c0 -72 -63 -203 -129 -269 -41 -41 -55 -48 -112 -58 -156
-28 -201 -22 -263 36 -24 22 -27 23 -18 6 22 -42 121 -122 174 -141 83 -28
188 -24 265 11 75 34 142 102 167 168 21 55 19 189 -2 210 -11 11 -12 7 -7
-22 6 -34 -20 -130 -40 -148 -4 -4 -5 2 -1 13 4 11 9 54 12 95 3 73 3 74 -8
30 l-12 -45 -7 64 c-8 65 -19 94 -19 50z m8 -159 c-8 -13 -9 -12 -4 3 3 9 1
17 -4 17 -5 0 -13 -17 -16 -37 -4 -26 -16 -46 -38 -63 l-31 -25 18 25 c23 33
67 128 68 149 1 9 5 0 9 -19 5 -21 4 -41 -2 -50z"/>
<path d="M7020 8176 c-31 -64 -83 -116 -143 -145 -53 -26 -60 -34 -19 -25 73
18 132 70 168 148 32 71 27 90 -6 22z"/>
<path d="M6680 7990 c8 -5 20 -10 25 -10 6 0 3 5 -5 10 -8 5 -19 10 -25 10 -5
0 -3 -5 5 -10z"/>
<path d="M5104 7860 c-1 -60 -25 -117 -45 -105 -5 4 -8 1 -7 -6 5 -21 -62 -51
-103 -46 -47 6 -95 30 -91 46 1 7 -2 10 -6 7 -14 -8 -42 27 -58 71 l-13 38 -1
-43 c-1 -97 65 -164 167 -170 54 -4 69 -1 108 22 75 45 104 131 71 211 -8 19
-16 35 -18 35 -2 0 -3 -27 -4 -60z"/>
<path d="M4875 7750 c-15 -24 72 -24 125 -1 24 11 24 11 -5 5 -49 -10 -114
-11 -109 -2 3 4 3 8 0 8 -3 0 -8 -5 -11 -10z"/>
<path d="M7816 7708 l-38 -11 4 -158 c2 -87 6 -160 9 -163 3 -3 18 -2 35 3 21
5 29 14 30 32 4 110 2 103 43 122 21 9 43 29 49 43 17 35 15 96 -4 122 -17 25
-59 28 -128 10z m79 -59 c11 -17 -4 -58 -25 -69 -19 -10 -20 -8 -20 35 0 38 3
45 19 45 11 0 23 -5 26 -11z"/>
<path d="M7598 7658 l-48 -10 0 -165 0 -164 33 3 c31 3 32 4 35 56 3 49 5 53
40 71 60 31 77 56 77 115 0 33 -7 61 -19 79 -20 30 -37 32 -118 15z m68 -83
c9 -35 2 -56 -23 -73 -23 -14 -23 -14 -23 40 0 30 3 57 6 61 11 11 34 -5 40
-28z"/>
<path d="M7427 7613 c-17 -4 -18 -17 -16 -161 1 -87 3 -160 5 -163 2 -3 17 -4
34 -1 l30 4 0 164 c0 177 2 171 -53 157z"/>
<path d="M7240 7567 c-33 -11 -36 -16 -47 -72 -18 -93 -43 -268 -38 -273 2 -2
17 -1 34 3 27 6 31 11 31 41 0 29 5 36 33 47 32 14 32 13 37 -17 5 -28 9 -31
38 -29 19 0 36 3 38 6 3 2 -9 53 -25 113 -16 60 -35 128 -41 152 -12 46 -11
46 -60 29z m23 -158 c5 -36 3 -46 -8 -46 -12 0 -15 14 -15 61 1 68 14 60 23
-15z"/>
<path d="M7015 7515 c-27 -8 -53 -14 -57 -15 -5 0 -8 -75 -8 -166 l0 -166 23
6 c12 3 27 6 34 6 8 0 13 25 15 78 2 42 7 77 13 77 5 0 14 -29 18 -65 4 -35
10 -66 12 -68 2 -3 16 -1 30 2 26 7 26 9 20 56 -4 27 -7 69 -7 95 l0 47 -49
-4 -49 -3 0 31 c0 29 4 32 37 39 40 7 53 19 53 48 0 20 -17 21 -85 2z"/>
<path d="M6757 7458 l-38 -10 2 -159 c1 -88 4 -161 8 -163 3 -2 18 -2 34 1 26
5 27 8 27 68 l0 62 41 18 c53 24 69 49 69 105 0 85 -39 106 -143 78z m71 -81
c3 -28 -23 -61 -40 -51 -10 6 -10 68 -1 78 15 15 38 0 41 -27z"/>
<path d="M6516 7398 l-39 -11 7 -60 c3 -33 6 -106 6 -163 l0 -102 35 11 c35
10 35 11 35 67 0 57 0 57 41 75 64 30 88 100 54 165 -14 26 -21 30 -58 29 -23
-1 -59 -6 -81 -11z m84 -81 c0 -33 -30 -74 -43 -60 -4 3 -7 26 -7 50 0 39 2
43 25 43 22 0 25 -4 25 -33z"/>
<path d="M6369 7360 c-14 -8 -15 -29 -11 -162 2 -84 6 -155 8 -156 1 -2 17 -1
34 3 l32 7 -3 159 c-3 152 -4 159 -24 159 -11 0 -27 -5 -36 -10z"/>
<path d="M6190 7317 c-33 -12 -34 -14 -52 -102 -23 -119 -36 -235 -27 -241 4
-2 18 0 32 5 17 7 26 20 31 44 5 27 13 38 36 45 30 11 40 2 40 -39 0 -20 10
-23 48 -13 27 8 27 4 -23 189 -18 65 -36 120 -41 121 -5 2 -25 -3 -44 -9z m18
-198 c-18 -11 -22 12 -12 70 l7 46 10 -54 c7 -42 6 -55 -5 -62z"/>
<path d="M5901 7252 c-72 -17 -88 -28 -78 -56 4 -11 15 -12 41 -6 20 4 36 7
36 6 0 -2 -20 -61 -45 -132 -42 -121 -52 -164 -40 -164 3 0 44 10 90 21 78 20
85 23 85 47 0 24 -2 24 -45 19 -25 -4 -45 -5 -45 -3 0 2 20 59 45 127 43 121
53 160 38 158 -5 0 -41 -8 -82 -17z"/>
<path d="M6027 7203 c-11 -10 -8 -53 3 -54 41 -5 45 -3 48 29 3 28 0 32 -21
32 -13 0 -27 -3 -30 -7z"/>
<path d="M6022 7020 c2 -53 5 -60 23 -60 33 0 45 20 45 72 l0 48 -36 0 -35 0
3 -60z"/>
<path d="M5465 6930 c-3 -6 1 -7 9 -4 18 7 21 14 7 14 -6 0 -13 -4 -16 -10z"/>
<path d="M3265 6930 c-3 -5 -1 -10 4 -10 6 0 11 5 11 10 0 6 -2 10 -4 10 -3 0
-8 -4 -11 -10z"/>
<path d="M5220 5975 c0 -33 4 -45 15 -45 16 0 19 28 9 68 -10 37 -24 25 -24
-23z"/>
<path d="M4694 5898 c3 -29 6 -70 6 -91 0 -31 3 -38 17 -35 60 11 46 178 -15
178 -12 0 -14 -10 -8 -52z"/>
<path d="M4300 5808 c0 -7 -3 -23 -6 -35 -5 -17 -2 -23 9 -23 22 0 30 17 23
46 -7 25 -26 34 -26 12z"/>
<path d="M4094 5832 c-5 -4 -10 -20 -10 -37 1 -23 6 -30 21 -30 16 0 20 7 20
34 0 35 -11 47 -31 33z"/>
<path d="M8980 5698 c-30 -41 -42 -75 -17 -48 19 21 60 90 53 90 -3 0 -19 -19
-36 -42z"/>
<path d="M3900 5760 c0 -43 6 -48 35 -27 24 18 13 67 -15 67 -17 0 -20 -7 -20
-40z"/>
<path d="M3911 5671 c-9 -6 -11 -18 -7 -36 5 -20 12 -26 29 -23 17 2 22 10 22
33 0 31 -19 42 -44 26z"/>
<path d="M1294 5246 c-3 -8 -4 -23 -2 -33 5 -25 51 -25 56 0 7 36 -42 65 -54
33z"/>
<path d="M1277 4728 c-70 -127 -74 -201 -5 -98 l40 60 31 -39 c42 -52 57 -58
57 -22 0 16 -18 56 -44 95 l-44 67 -35 -63z"/>
<path d="M8223 4056 c-128 -42 -230 -165 -281 -341 -11 -38 -22 -80 -24 -93
l-3 -23 -357 1 -356 0 -4 -51 c-1 -28 -1 -53 1 -55 2 -2 166 -4 363 -4 l358 0
0 -43 c0 -64 35 -188 76 -274 45 -91 119 -169 198 -208 108 -53 229 -22 337
86 63 63 118 164 146 269 23 87 23 288 -1 385 -34 145 -122 272 -225 328 -62
34 -164 44 -228 23z m175 -120 c52 -26 120 -94 147 -146 51 -98 71 -228 53
-329 l-12 -66 -8 70 c-4 39 -17 97 -28 130 l-20 60 4 -50 c6 -68 -5 -156 -15
-130 -4 11 -8 36 -9 55 l-1 35 -14 -30 c-8 -16 -17 -43 -21 -60 -6 -22 -10 0
-15 80 -5 73 -14 129 -28 165 -32 82 -35 86 -56 53 -10 -15 -18 -33 -18 -40 0
-7 -3 -10 -7 -8 -4 2 -31 -20 -60 -50 -30 -30 -58 -55 -62 -55 -4 0 8 24 27
53 20 28 38 60 42 70 3 9 9 17 14 17 4 0 22 20 39 45 19 28 26 45 18 45 -7 0
-29 3 -49 6 -30 5 -40 2 -59 -17 -33 -34 -62 -105 -55 -132 4 -15 3 -18 -3 -9
-7 11 -11 10 -16 -4 -10 -27 -25 -198 -26 -288 0 -44 -2 -77 -4 -75 -14 14
-47 176 -48 239 -2 72 -2 73 -10 30 -5 -25 -13 -65 -18 -90 -5 -25 -11 -89
-12 -142 -1 -53 -5 -95 -9 -93 -4 3 -15 37 -25 77 -25 96 -24 259 0 343 63
211 219 314 364 241z m-115 -101 c-3 -9 -8 -14 -10 -11 -3 3 -2 9 2 15 9 16
15 13 8 -4z m4 -90 c5 -4 2 -5 -6 0 -10 6 -13 4 -9 -7 4 -8 1 -15 -6 -15 -6 0
-12 8 -12 17 0 18 19 21 33 5z m-80 -157 c-3 -8 -6 -5 -6 6 -1 11 2 17 5 13 3
-3 4 -12 1 -19z m-910 -24 c-3 -3 -12 -4 -19 -1 -8 3 -5 6 6 6 11 1 17 -2 13
-5z"/>
<path d="M7206 3362 c-10 -16 25 -136 56 -194 34 -65 88 -117 152 -148 36 -17
77 -21 356 -30 173 -6 319 -14 325 -17 5 -3 3 1 -5 10 -12 12 -61 16 -285 22
-148 4 -292 10 -320 15 -27 4 91 5 263 2 l314 -5 -35 46 c-34 45 -82 155 -107
248 -12 46 -12 46 -63 53 -78 9 -645 7 -651 -2z m207 -99 c15 -17 12 -18 -39
-20 -41 -2 -54 1 -54 11 0 29 69 35 93 9z m217 -3 c11 -11 20 -26 20 -32 0 -7
-5 -5 -11 5 -9 16 -19 18 -60 12 -40 -6 -49 -4 -49 8 0 32 71 36 100 7z m214
-2 c9 -12 16 -29 15 -38 0 -8 -4 -5 -10 9 -9 24 -31 25 -81 6 -12 -5 -20 -1
-24 10 -15 39 74 50 100 13z m-426 -64 c-9 -9 -22 -14 -30 -11 -9 4 -6 8 10
12 12 4 22 12 22 18 0 6 3 7 7 3 4 -3 0 -14 -9 -22z m415 -6 c-2 -5 -15 -8
-29 -8 -13 0 -24 3 -24 8 0 4 13 7 29 7 16 0 27 -3 24 -7z"/>
<path d="M6483 3712 c-33 -21 -41 -153 -11 -189 16 -19 53 -16 73 7 23 25 13
70 -15 70 -31 0 -27 48 5 60 29 11 31 22 9 44 -17 17 -42 20 -61 8z"/>
<path d="M5960 3355 c-6 -7 -10 -29 -8 -47 4 -41 40 -52 58 -18 21 40 -23 98
-50 65z"/>
<path d="M4291 2743 c-10 -26 -10 -27 4 -9 8 11 15 23 15 28 0 15 -7 8 -19
-19z"/>
<path d="M5011 2897 c-17 -44 -14 -57 14 -57 23 0 25 3 19 28 -13 52 -22 60
-33 29z"/>
<path d="M5400 2831 c0 -27 4 -31 36 -37 26 -5 39 -3 45 7 13 22 -14 54 -50
57 -29 3 -31 1 -31 -27z"/>
<path d="M5790 2761 c0 -35 4 -38 50 -43 31 -3 35 0 38 21 5 30 -20 51 -60 51
-24 0 -28 -4 -28 -29z"/>
<path d="M6555 2665 c-28 -27 -29 -33 -16 -68 22 -58 91 -35 91 29 0 31 -21
64 -41 64 -6 0 -21 -11 -34 -25z m63 -40 c3 -16 1 -18 -9 -7 -19 18 -49 15
-49 -5 0 -9 -3 -14 -6 -10 -3 3 -3 15 1 27 9 28 58 24 63 -5z m-21 -31 c-3 -3
-12 -4 -19 -1 -8 3 -5 6 6 6 11 1 17 -2 13 -5z"/>
<path d="M7848 2314 c-11 -23 -10 -28 7 -40 24 -18 37 -14 52 16 9 17 9 28 1
37 -17 21 -48 15 -60 -13z m29 -16 c-3 -7 -5 -2 -5 12 0 14 2 19 5 13 2 -7 2
-19 0 -25z"/>
<path d="M7927 2329 c7 -7 15 -10 18 -7 3 3 -2 9 -12 12 -14 6 -15 5 -6 -5z"/>
<path d="M8490 2290 c0 -11 5 -20 10 -20 6 0 10 9 10 20 0 11 -4 20 -10 20 -5
0 -10 -9 -10 -20z"/>
<path d="M4229 2115 c-29 -16 -52 -66 -42 -93 11 -31 36 -52 75 -62 30 -9 38
-15 38 -34 0 -29 -30 -43 -46 -22 -18 26 -53 20 -60 -10 -9 -34 18 -53 74 -54
90 0 139 102 72 150 -17 12 -43 25 -58 29 -32 9 -41 37 -15 45 10 3 33 2 50
-3 36 -11 43 -7 43 26 0 40 -78 57 -131 28z"/>
<path d="M4455 2048 c-15 -46 -35 -111 -45 -146 l-19 -63 37 3 c29 2 37 8 42
28 5 22 11 25 50 25 39 0 45 -3 50 -25 5 -20 13 -26 42 -28 l36 -3 -45 138
c-25 76 -47 141 -50 146 -2 4 -19 7 -38 7 -33 0 -34 -1 -60 -82z m84 -85 c1
-7 -10 -13 -24 -13 -29 0 -29 0 -13 53 l12 40 12 -34 c7 -19 13 -40 13 -46z"/>
<path d="M4800 2117 c-32 -16 -60 -71 -60 -117 1 -51 19 -122 37 -142 21 -24
77 -33 111 -19 37 16 53 43 59 108 l6 54 -49 -3 c-47 -3 -49 -4 -49 -33 0 -25
3 -30 23 -27 27 4 28 -9 4 -31 -42 -38 -72 -7 -72 73 0 54 16 90 39 90 11 0
23 -4 26 -10 3 -5 19 -10 36 -10 24 0 29 4 29 24 0 48 -81 73 -140 43z"/>
<path d="M5009 2028 c-1 -57 -3 -122 -4 -145 -3 -43 -3 -43 31 -43 34 0 34 0
34 45 0 43 1 45 30 45 18 0 42 11 61 28 26 24 32 36 32 72 0 36 -6 48 -32 72
-27 24 -40 28 -91 28 l-60 0 -1 -102z m115 26 c11 -28 6 -52 -10 -58 -35 -13
-44 -7 -44 34 0 36 3 40 24 40 13 0 27 -7 30 -16z"/>
<path d="M5244 2116 c-7 -19 -1 -262 7 -270 3 -3 16 -7 30 -8 l24 -3 3 143 c2
118 0 142 -12 142 -8 0 -21 3 -30 6 -9 4 -18 0 -22 -10z"/>
<path d="M5405 2108 c-15 -13 -28 -38 -31 -58 -5 -29 -1 -40 21 -62 14 -15 40
-30 56 -33 36 -8 48 -31 26 -52 -13 -14 -18 -13 -46 3 -37 22 -57 9 -47 -29 6
-25 47 -47 88 -47 30 0 88 63 88 95 0 32 -46 81 -86 91 -68 17 -46 56 27 47
45 -5 49 -4 49 15 0 54 -95 73 -145 30z"/>
<path d="M5649 2101 c-50 -50 -31 -119 39 -142 48 -15 55 -23 47 -48 -7 -24
-37 -28 -55 -6 -25 30 -60 13 -60 -29 0 -19 75 -50 103 -42 62 15 98 74 77
126 -11 27 -30 40 -83 60 -19 7 -27 16 -25 28 3 14 12 16 56 14 47 -3 52 -2
52 17 0 28 -37 51 -83 51 -29 0 -46 -7 -68 -29z"/>
<path d="M5862 2098 l3 -33 59 3 59 4 -31 -54 c-109 -191 -110 -178 13 -178
l95 0 0 29 c0 29 -2 30 -49 33 l-48 3 48 85 c27 47 50 96 51 110 l3 25 -103 3
-103 3 3 -33z"/>
<path d="M3632 1923 c-5 -10 -13 -37 -17 -60 -5 -35 -4 -44 10 -49 9 -4 21 -2
28 5 19 19 37 12 37 -14 0 -34 26 -32 45 4 8 16 22 37 31 46 15 14 15 18 3 26
-22 14 -27 11 -48 -28 -22 -41 -28 -32 -10 14 8 22 7 30 -7 40 -21 15 -34 8
-34 -17 0 -10 -5 -22 -10 -25 -7 -4 -10 6 -8 29 2 42 -6 55 -20 29z"/>
<path d="M6490 1850 c0 -15 40 -87 55 -100 10 -8 19 -8 34 0 28 14 28 44 1 35
-15 -5 -23 2 -40 34 -18 37 -50 56 -50 31z"/>
<path d="M3906 1759 c-9 -29 -16 -56 -16 -61 0 -13 28 -9 33 5 4 7 8 3 12 -10
4 -13 11 -23 15 -23 8 0 70 92 70 103 0 18 -40 4 -46 -15 -7 -21 -9 -19 -14
12 -8 57 -36 51 -54 -11z"/>
<path d="M6393 1783 c3 -16 13 -45 21 -65 15 -35 17 -37 46 -27 39 14 48 29
18 29 -18 0 -29 11 -46 45 -24 50 -48 61 -39 18z"/>
<path d="M6848 1783 c6 -2 18 -2 25 0 6 3 1 5 -13 5 -14 0 -19 -2 -12 -5z"/>
<path d="M6200 1741 c-31 -8 -31 -12 -1 -83 l23 -57 29 15 c29 15 36 28 20 38
-5 4 -12 0 -14 -6 -4 -10 -8 -9 -16 2 -8 11 -7 16 4 18 17 4 8 32 -11 32 -19
0 -18 19 1 26 8 4 15 10 15 15 0 10 -14 10 -50 0z"/>
<path d="M4154 1718 c-8 -13 -34 -111 -30 -115 1 -2 17 -6 34 -9 25 -5 32 -3
32 10 0 9 -4 15 -9 14 -9 -3 -11 1 -11 29 0 15 1 15 13 -2 13 -17 14 -17 12 1
0 11 -4 24 -8 31 -5 7 0 9 13 6 13 -3 20 0 20 9 0 17 -57 40 -66 26z"/>
<path d="M5970 1665 c0 -13 36 -111 46 -124 2 -2 10 -1 19 3 13 5 14 10 4 27
-8 16 -8 27 1 44 20 38 9 60 -33 63 -29 3 -37 0 -37 -13z"/>
<path d="M5796 1611 c-15 -17 -16 -23 -4 -43 12 -22 14 -28 17 -55 2 -18 60
-16 67 2 4 8 3 27 0 41 -5 19 -11 24 -25 19 -11 -3 -22 -1 -26 5 -4 7 2 14 14
17 12 3 20 11 18 17 -6 19 -42 18 -61 -3z"/>
<path d="M4525 1574 c-3 -26 -9 -53 -12 -60 -3 -8 1 -14 9 -14 8 0 19 19 26
45 16 59 15 75 -2 75 -9 0 -16 -17 -21 -46z"/>
<path d="M4607 1603 c-3 -5 -8 -34 -11 -65 -7 -58 3 -76 22 -41 9 14 10 14 16
-5 4 -12 11 -22 16 -22 9 0 27 55 32 99 4 34 -18 37 -30 4 l-10 -28 -1 33 c-1
30 -22 45 -34 25z"/>
<path d="M5556 1559 c-11 -58 -7 -109 9 -109 8 0 17 11 21 25 l6 25 18 -23
c10 -12 21 -19 25 -15 9 9 -12 97 -27 115 -20 24 -45 15 -52 -18z"/>
<path d="M4987 1564 c-4 -4 -7 -18 -7 -31 0 -13 -6 -32 -12 -43 -11 -17 -9
-23 9 -41 17 -18 28 -20 62 -14 25 4 41 12 41 21 0 8 -4 14 -10 14 -5 0 -10
-4 -10 -10 0 -5 -5 -10 -10 -10 -6 0 -6 7 2 19 25 40 -34 126 -65 95z m27 -79
c3 -8 1 -15 -4 -15 -6 0 -10 7 -10 15 0 8 2 15 4 15 2 0 6 -7 10 -15z"/>
<path d="M5398 1559 c-20 -11 -23 -53 -8 -94 9 -23 15 -26 47 -23 34 3 38 6
36 28 -5 85 -32 115 -75 89z m42 -59 c0 -16 -4 -30 -10 -30 -5 0 -10 14 -10
30 0 17 5 30 10 30 6 0 10 -13 10 -30z"/>
<path d="M5728 1523 c7 -3 16 -2 19 1 4 3 -2 6 -13 5 -11 0 -14 -3 -6 -6z"/>
<path d="M3700 1366 c0 -9 7 -16 16 -16 17 0 14 22 -4 28 -7 2 -12 -3 -12 -12z"/>
<path d="M6673 1374 c-7 -19 2 -28 22 -21 19 8 19 23 0 31 -9 3 -18 -1 -22
-10z"/>
<path d="M3962 1260 c0 -14 2 -19 5 -12 2 6 2 18 0 25 -3 6 -5 1 -5 -13z"/>
<path d="M4237 1190 c-3 -11 -2 -20 3 -20 12 0 31 26 23 33 -11 12 -21 7 -26
-13z"/>
<path d="M5244 1099 c-10 -17 13 -36 27 -22 12 12 4 33 -11 33 -5 0 -12 -5
-16 -11z"/>
<path d="M5237 1004 c-14 -14 -7 -35 11 -32 9 2 17 10 17 17 0 16 -18 25 -28
15z"/>
<path d="M5540 1051 c0 -6 5 -13 10 -16 6 -3 10 1 10 9 0 9 -4 16 -10 16 -5 0
-10 -4 -10 -9z"/>
</g>
</svg>
